<svg width="50" height="51" viewBox="0 0 50 51" fill="none" xmlns="http://www.w3.org/2000/svg">
<path fill-rule="evenodd" clip-rule="evenodd" d="M25 0.5C11.1925 0.5 0 11.6944 0 25.5042C0 30.2301 1.3125 34.6558 3.595 38.4264L1.365 46.0077C1.23696 46.443 1.22854 46.9048 1.34061 47.3444C1.45269 47.7841 1.68112 48.1854 2.0019 48.5063C2.32268 48.8271 2.72395 49.0556 3.16354 49.1677C3.60313 49.2798 4.06479 49.2713 4.5 49.1433L12.08 46.9129C15.9768 49.2707 20.4456 50.5143 25 50.5085C38.8075 50.5085 50 39.3141 50 25.5042C50 11.6944 38.8075 0.5 25 0.5ZM19.345 31.1627C24.4025 36.2186 29.23 36.8862 30.935 36.9487C33.5275 37.0437 36.0525 35.0634 37.035 32.7655C37.158 32.4794 37.2024 32.1657 37.1638 31.8567C37.1251 31.5477 37.0047 31.2546 36.815 31.0077C35.445 29.2574 33.5925 27.9997 31.7825 26.7495C31.4048 26.4875 30.9402 26.3823 30.4865 26.456C30.0328 26.5297 29.6254 26.7765 29.35 27.1445L27.85 29.4324C27.7707 29.5549 27.6479 29.6427 27.5063 29.678C27.3647 29.7133 27.215 29.6935 27.0875 29.6224C26.07 29.0399 24.5875 28.0497 23.5225 26.9845C22.4575 25.9193 21.5275 24.5041 21.005 23.5514C20.9418 23.43 20.9239 23.2901 20.9546 23.1567C20.9853 23.0234 21.0626 22.9053 21.1725 22.8238L23.4825 21.1085C23.8131 20.8224 24.0266 20.4244 24.0819 19.9907C24.1373 19.557 24.0307 19.1181 23.7825 18.7581C22.6625 17.1178 21.3575 15.0325 19.465 13.6497C19.2202 13.4738 18.9342 13.3642 18.6346 13.3313C18.335 13.2985 18.032 13.3435 17.755 13.4622C15.455 14.4474 13.465 16.9728 13.56 19.5707C13.6225 21.276 14.29 26.1043 19.345 31.1627Z" fill="#235B2F"/>
</svg>
