<svg width="43" height="53" viewBox="0 0 43 53" fill="none" xmlns="http://www.w3.org/2000/svg">
<path d="M21.1999 31.8012C27.046 31.8012 31.8003 27.047 31.8003 21.2009C31.8003 15.3548 27.046 10.6006 21.1999 10.6006C15.3539 10.6006 10.5996 15.3548 10.5996 21.2009C10.5996 27.047 15.3539 31.8012 21.1999 31.8012ZM21.1999 15.9007C24.123 15.9007 26.5001 18.2779 26.5001 21.2009C26.5001 24.124 24.123 26.5011 21.1999 26.5011C18.2769 26.5011 15.8998 24.124 15.8998 21.2009C15.8998 18.2779 18.2769 15.9007 21.1999 15.9007Z" fill="#235B2F"/>
<path d="M19.6638 52.5087C20.1127 52.8283 20.6499 53 21.2009 53C21.7518 53 22.2891 52.8283 22.7379 52.5087C23.5436 51.9389 42.4784 38.2672 42.4015 21.2007C42.4015 9.51114 32.8904 0 21.2009 0C9.51138 0 0.000233307 9.51114 0.000233307 21.1874C-0.0766191 38.2672 18.8582 51.9389 19.6638 52.5087ZM21.2009 5.30016C29.97 5.30016 37.1014 12.4315 37.1014 21.2139C37.157 32.975 25.4728 43.5355 21.2009 46.9992C16.9316 43.5329 5.24474 32.9697 5.3004 21.2007C5.3004 12.4315 12.4318 5.30016 21.2009 5.30016Z" fill="#235B2F"/>
</svg>
