<svg width="37" height="33" viewBox="0 0 37 33" fill="none" xmlns="http://www.w3.org/2000/svg">
<path d="M33.8074 27.0369C34.5373 27.0373 35.2391 27.3184 35.7673 27.8221C36.2955 28.3258 36.6098 29.0134 36.6448 29.7424C36.6799 30.4715 36.4332 31.1861 35.9557 31.7381C35.4783 32.2902 34.8067 32.6374 34.0803 32.7079L33.8074 32.7211H3.49153C2.76164 32.7208 2.05987 32.4396 1.53163 31.9359C1.00339 31.4322 0.689181 30.7446 0.654105 30.0156C0.619029 29.2866 0.865778 28.572 1.34322 28.0199C1.82067 27.4678 2.4922 27.1206 3.21869 27.0502L3.49153 27.0369H33.8074ZM33.8074 13.7737C34.5612 13.7737 35.2841 14.0731 35.8171 14.6061C36.3501 15.1391 36.6495 15.862 36.6495 16.6158C36.6495 17.3696 36.3501 18.0925 35.8171 18.6255C35.2841 19.1585 34.5612 19.4579 33.8074 19.4579H3.49153C2.73775 19.4579 2.01485 19.1585 1.48185 18.6255C0.94885 18.0925 0.649414 17.3696 0.649414 16.6158C0.649414 15.862 0.94885 15.1391 1.48185 14.6061C2.01485 14.0731 2.73775 13.7737 3.49153 13.7737H33.8074ZM33.8074 0.510498C34.5612 0.510498 35.2841 0.809934 35.8171 1.34293C36.3501 1.87593 36.6495 2.59884 36.6495 3.35261C36.6495 4.10639 36.3501 4.82929 35.8171 5.36229C35.2841 5.89529 34.5612 6.19473 33.8074 6.19473H3.49153C2.73775 6.19473 2.01485 5.89529 1.48185 5.36229C0.94885 4.82929 0.649414 4.10639 0.649414 3.35261C0.649414 2.59884 0.94885 1.87593 1.48185 1.34293C2.01485 0.809934 2.73775 0.510498 3.49153 0.510498H33.8074Z" fill="#235A2F"/>
</svg>
