<svg width="48" height="48" viewBox="0 0 48 48" fill="none" xmlns="http://www.w3.org/2000/svg">
<path d="M23.6205 14.8274C22.8614 14.0006 24.4332 8.56525 15.2171 4.85235C13.699 5.12795 11.9968 12.7758 20.9523 15.1183C23.6282 16.458 23.2065 18.6858 23.2065 19.9183H24.9316C24.9316 19.9183 24.2262 15.9911 27.3775 14.5518C29.5167 13.5719 35.4282 13.2581 37 4.43895C34.0097 2.70882 23.3828 6.07722 23.6282 14.8274H23.6205ZM21.4506 13.3346C21.2666 13.4571 21.0213 13.4188 20.8909 13.2351C20.0168 11.9643 17.594 9.03989 16.5205 7.97578C16.3595 7.82267 16.3595 7.56238 16.5205 7.40928C16.6739 7.24851 16.9346 7.24851 17.0879 7.40928C18.2227 8.54994 20.6226 11.4361 21.5503 12.7758C21.673 12.9595 21.6346 13.2045 21.4506 13.3346ZM32.6833 6.82746C29.7544 8.68008 27.3545 11.7499 26.2811 13.4265C26.1584 13.6102 25.913 13.6638 25.729 13.549C25.545 13.4265 25.4913 13.1815 25.614 12.9978C26.7411 11.26 29.1716 8.12123 32.2616 6.16143C32.4456 6.03895 32.6986 6.10019 32.8136 6.28392C32.9286 6.46765 32.875 6.72028 32.6909 6.83511L32.6833 6.82746Z" fill="#235B2F"/>
<path d="M21.0319 42.8392C20.6178 42.3416 20.4952 41.6449 20.4492 41.0248C20.4108 39.8306 20.5718 38.6669 20.6562 37.511C20.7405 36.5234 21.1546 30.6517 21.1929 29.6641C21.2772 28.0947 21.3616 26.5254 21.2312 24.9943C21.1469 24.1292 21.1086 23.3024 21.2312 22.4756C21.2696 21.978 21.3999 21.4421 21.6453 20.9905C22.0976 20.3321 23.0101 20.0412 23.8381 19.957C24.7505 19.8728 25.7856 19.8728 26.5677 20.3704C27.0201 20.6613 27.3574 21.1972 27.5184 21.6948C27.7638 22.4373 27.8098 23.2641 27.8098 24.0526C27.7715 28.4699 26.5677 32.8488 26.6137 37.2736C26.6137 38.4296 26.7824 39.5473 26.8207 40.7033C26.8207 41.2851 26.7824 41.8975 26.5294 42.3951C26.3223 42.8085 25.9466 43.176 25.5403 43.3827C24.2138 44.087 22.021 43.9645 21.0319 42.8468V42.8392Z" fill="#235B2F"/>
</svg>
