<svg width="92" height="155" viewBox="0 0 92 155" fill="none" xmlns="http://www.w3.org/2000/svg">
<path d="M26.4599 150.535C24.8037 148.543 24.313 145.753 24.129 143.27C23.9757 138.487 24.6197 133.827 24.9571 129.198C25.2945 125.243 26.9506 101.73 27.1039 97.7749C27.4413 91.4903 27.7787 85.2056 27.2573 79.0743C26.9199 75.61 26.7666 72.2991 27.2573 68.9882C27.4106 66.9955 27.932 64.8495 28.9134 63.0408C30.7229 60.4043 34.3726 59.2393 37.6849 58.9021C41.3345 58.5649 45.4749 58.5649 48.6031 60.5576C50.4126 61.7225 51.7621 63.8685 52.4062 65.8612C53.3876 68.8349 53.5716 72.1458 53.5716 75.3035C53.4182 92.9925 48.6031 110.528 48.7871 128.248C48.7871 132.877 49.4619 137.353 49.6152 141.982C49.6152 144.312 49.4619 146.765 48.4498 148.757C47.6217 150.413 46.1189 151.884 44.4935 152.712C39.1877 155.532 30.4162 155.042 26.4599 150.566V150.535Z" fill="#235A2F"/>
<path d="M38.482 43.3591C35.4457 40.0482 41.7329 18.2818 4.86839 3.41329C-1.20413 4.51693 -8.01274 35.1431 27.809 44.5241C38.5126 49.889 36.8258 58.8102 36.8258 63.7459H43.7264C43.7264 63.7459 40.9049 48.019 53.51 42.2555C62.0667 38.3314 85.7128 37.0745 92 1.75782C80.039 -5.17062 37.5312 8.31837 38.5127 43.3591H38.482ZM29.8025 37.381C29.0665 37.8716 28.0851 37.7183 27.5637 36.9825C24.0674 31.8935 14.3759 20.1826 10.0822 15.9213C9.43812 15.3081 9.43812 14.2658 10.0822 13.6527C10.6956 13.0089 11.7383 13.0089 12.3517 13.6527C16.8908 18.2205 26.4903 29.7782 30.2013 35.1431C30.692 35.8789 30.5386 36.8599 29.8025 37.381ZM74.7331 11.3227C63.0175 18.7417 53.4179 31.0351 49.1242 37.7489C48.6335 38.4847 47.6521 38.6993 46.916 38.2394C46.18 37.7489 45.9653 36.7679 46.456 36.0321C50.9644 29.073 60.6866 16.5037 73.0463 8.6556C73.7824 8.16509 74.7945 8.41035 75.2545 9.14611C75.7146 9.88188 75.4999 10.8936 74.7638 11.3534L74.7331 11.3227Z" fill="#235B2F"/>
</svg>
