<svg width="244" height="75" viewBox="0 0 244 75" fill="none" xmlns="http://www.w3.org/2000/svg">
<path d="M2.03664 73.3303C-0.785852 71.4201 0.0725357 64.0523 0.305319 60.7368C0.465357 58.2399 1.16371 43.8726 1.09096 41.3758C1.09096 36.3001 0.625395 31.2109 0.378063 26.1353C0.305319 24.9619 0.450808 23.6384 1.09096 22.5332C1.8766 21.2779 3.60793 20.4729 5.09192 20.3229C7.91441 20.0227 10.8969 21.278 12.9483 22.9698C16.251 25.6168 18.7534 29.1506 21.3431 32.4661C21.9687 33.2711 22.4342 34.0898 22.9144 34.963C26.2897 41.0756 28.7194 47.6248 31.862 53.8874C32.0947 52.8505 32.182 51.7589 32.182 50.6538C32.2548 47.7885 31.9493 44.9096 31.6292 42.1125C31.2364 38.0602 30.6835 34.0079 30.2907 29.9693C30.0579 27.6907 29.1122 20.1046 30.1306 18.1125C30.3634 17.6759 30.7562 17.3757 31.0763 17.0756C32.9531 15.7521 36.4885 16.0386 38.2926 17.4439C39.0782 18.0306 39.6311 18.9175 40.0239 19.8044C40.4895 20.9778 40.8096 22.233 41.0423 23.5565C41.7552 26.9403 41.828 30.4741 41.828 34.0079C41.988 42.8357 42.5409 51.6089 42.0608 60.4366C41.828 63.0836 41.6679 65.7305 41.0423 68.3093C40.8096 69.1961 40.4895 70.1512 40.0239 70.9562C37.9871 74.34 33.1132 74.7902 29.9706 72.2797C28.0938 70.7379 27.1481 68.3093 26.2024 66.0989C23.7728 60.5048 21.2558 55.0608 18.506 49.6032C17.2548 47.2427 15.9891 44.8141 14.5051 42.6037C13.9522 41.7987 13.3994 40.9801 12.701 40.2433C12.3809 41.9352 12.541 49.8897 12.6283 51.5816C12.7883 55.1836 14.6651 68.4457 13.0211 71.7476C12.701 72.4162 12.0754 73.0711 11.3771 73.4395C9.10743 74.6129 4.16079 74.6947 2.03664 73.2894V73.3303Z" fill="black"/>
<path d="M55.2712 68.473C53.8599 68.0364 52.4487 67.3678 51.4303 66.2627C50.2518 64.9392 49.6262 63.0972 49.4662 61.4053C49.0733 57.0665 50.1791 35.6452 50.6446 31.3746C50.8047 30.3377 51.3575 26.7356 52.0559 25.9306C52.6815 25.1256 53.7872 24.6071 54.8056 24.3888C57.3226 23.7202 68.8599 23.8703 71.4496 23.9522C72.9336 23.9522 74.4321 24.1023 75.8434 24.689C76.8618 25.1256 77.8075 25.9442 78.273 26.9675C79.3788 29.328 78.9859 33.3666 76.7891 34.9903C76.0762 35.4269 75.2178 35.6589 74.4321 35.7271C73.341 35.7271 67.5214 34.772 66.4302 34.6901C65.3245 34.54 64.0005 34.4718 62.9821 34.9903C61.9637 35.5088 61.3381 37.7873 61.2508 38.8925C61.0908 39.9977 61.4836 41.4713 62.502 41.9897C63.3604 42.5082 67.0558 42.4264 68.0742 42.4264C69.2527 42.4264 74.1993 42.4264 75.2905 42.7947C76.0034 43.0131 76.629 43.5315 76.9345 44.1865C77.4874 45.2234 77.4001 47.8704 76.8618 48.8255C76.5417 49.4122 76.0034 49.8624 75.3633 50.1489C74.1848 50.6674 72.9336 50.7356 71.6678 50.8175C68.9181 50.9676 66.0956 50.7493 63.3458 50.299C62.793 50.2308 61.469 49.9306 60.9889 50.299C60.6688 50.5173 60.5233 51.4724 60.5233 51.8408C60.3633 53.6009 60.5961 55.4429 60.9162 57.2166C60.9889 57.8033 61.3817 59.4269 61.8618 59.7953C62.1819 60.0136 63.4331 60.0955 63.8987 60.0955C64.9171 60.0955 65.9356 59.8772 66.8812 59.7271C68.5253 59.4269 73.792 58.1035 75.3633 58.7038C76.0762 59.004 76.6145 59.809 76.9345 60.5458C77.5602 61.8692 77.7929 65.1166 76.9345 66.3582C76.3089 67.245 75.2032 67.8317 74.1121 68.1183C70.9695 68.9233 67.6814 69.2917 64.4516 69.3735C61.3963 69.4417 58.2537 69.3053 55.2712 68.4866V68.473Z" fill="black"/>
<path d="M116.726 71.3519C115.868 70.9835 115.155 70.2467 114.689 69.4417C114.064 68.2683 113.744 66.9448 113.438 65.6896C112.812 63.3291 108.957 48.6071 108.331 46.2603C107.473 50.4627 106.6 54.6515 105.582 58.8539C104.869 61.6509 104.083 64.448 102.919 67.1768C102.526 68.1319 102.061 69.1688 101.348 69.9738C100.795 70.5605 100.097 71.0108 99.3837 71.2973C96.634 72.4025 90.6689 72.4707 88.312 70.7106C86.7407 69.5372 85.9551 67.477 85.4022 65.635C84.5438 62.4013 84.2237 59.004 84.151 55.6202C83.991 45.9056 84.7766 36.0409 87.1335 26.5445C87.2936 25.7395 87.7591 24.1841 88.5448 23.9658C89.956 23.0107 94.5098 23.1608 96.2412 23.4473C97.4924 23.6656 98.9036 24.4024 99.4565 25.5076C100.169 26.9129 100.009 28.673 99.6893 30.2148C98.5981 35.5906 97.5651 40.9664 96.8668 46.4104C96.2412 50.681 95.7756 55.0199 95.7756 59.3723C97.7397 53.9966 100.097 48.7026 102.526 43.4769C104.33 39.5747 107.153 33.9124 110.616 36.7094C111.401 37.378 111.954 38.3331 112.42 39.2882C115.169 45.3189 118.312 51.2814 120.814 57.4758C121.6 50.4764 120.887 43.3405 119.709 36.3547C119.316 33.9942 118.69 31.5656 118.53 29.1369C118.457 27.4451 118.603 25.3848 119.869 24.2796C121.047 23.2427 122.851 23.1062 124.422 22.9561C125.761 22.8061 127.405 22.7378 128.423 23.5428C129.136 24.1295 129.515 25.0846 129.762 25.9033C130.78 30.1739 133.065 52.4821 133.297 56.8209C133.53 60.1364 133.53 63.5884 132.439 66.6856C131.973 68.0773 130.955 69.4826 129.529 70.2194C127.259 71.3928 124.582 72.1296 121.92 72.2797C120.189 72.3479 118.312 72.1296 116.741 71.3928L116.726 71.3519Z" fill="black"/>
<path d="M152.924 72.9619C151.833 72.6617 150.727 72.0068 150.014 71.0518C149.388 70.0967 149.228 68.9233 149.156 67.8181C149.083 66.058 149.781 56.1796 149.869 54.4195C150.029 50.299 150.101 46.0966 149.941 41.9079C149.869 37.9374 149.388 33.9533 149.083 29.9829C146.493 30.0511 143.903 30.2831 141.474 29.9147C140.295 29.6964 139.117 29.328 138.258 28.5912C136.382 26.9675 136.687 24.2524 138.724 22.847C139.437 22.4104 140.368 22.1102 141.314 21.9602C143.511 21.66 145.795 21.8101 148.064 21.8101C151.513 21.8783 164.388 21.0733 167.458 22.4786C170.281 23.8021 170.761 28.0727 168.244 29.6964C165.974 31.1699 162.832 31.2382 160.082 30.8016C160.402 32.5616 160.635 34.3354 160.795 36.0955C160.868 36.2456 160.722 36.4639 160.795 36.614C160.868 36.764 160.868 36.9141 160.955 37.0506C161.42 42.5764 161.58 48.0204 161.973 53.5463C162.206 56.4935 163.777 67.3132 162.526 70.0421C162.206 70.7106 161.74 71.3656 161.115 71.884C160.024 72.6208 158.685 72.9892 157.347 73.2075C155.935 73.4258 154.364 73.2757 152.953 72.9892L152.924 72.9619Z" fill="#235A2F"/>
<path d="M176.173 70.6151C174.834 69.4417 174.834 67.2996 174.922 65.6896C175.242 55.0199 174.762 44.3365 174.602 33.6668V33.5167C174.209 31.3064 173.816 29.096 174.049 26.8175C174.209 25.494 174.907 24.3206 176.173 23.5019C177.904 22.3968 180.014 21.8101 182.065 21.4417C186.779 20.4866 192.191 20.3365 196.585 22.2467C199.495 23.5019 202.477 25.1938 204.281 27.6907C205.533 29.4508 206.158 31.743 206.158 33.8715C206.231 36.7367 205.3 39.7657 203.801 42.2626C202.943 43.7362 201.764 45.1279 200.353 46.0966C199.568 46.6151 198.782 47.0517 198.084 47.6384C198.244 47.7885 199.335 48.8937 199.495 49.0438C201.619 51.6225 203.19 54.5696 204.441 57.585C205.547 60.3138 207.817 66.7129 206.013 69.1416C205.693 69.5782 205.227 69.9466 204.762 70.1785C202.797 71.2018 199.029 71.6521 197.385 70.1785C196.672 69.5099 196.207 68.5549 195.974 67.5998C194.868 63.4792 194.243 59.2086 192.671 55.1563C191.726 52.7277 190.242 49.5622 187.652 50.3672C186.794 50.5855 186.314 52.5776 186.081 53.3826C186.401 57.8715 186.794 62.4423 186.794 66.9312C186.794 68.1865 186.866 69.5782 186.081 70.5333C185.222 71.4883 183.651 71.7067 182.313 71.8567C180.276 72.0068 177.686 71.925 176.187 70.6015L176.173 70.6151ZM192.104 38.1421C194.854 36.5184 195.552 32.8482 193.21 30.706C192.351 29.901 190.853 29.6691 189.514 29.6009C188.569 29.6009 186.372 29.6691 185.746 30.4059C185.426 30.9243 185.353 31.511 185.353 32.0977C185.281 34.4582 185.746 36.805 186.066 39.1654C188.103 39.3155 190.387 39.1654 192.104 38.1284V38.1421Z" fill="#235A2F"/>
<path d="M212.909 67.0813C212.123 66.1944 211.89 64.9528 211.803 63.8477C211.73 61.7192 212.036 59.6453 212.196 57.585C212.356 55.8249 213.142 45.3598 213.214 43.5998C213.374 40.8027 213.534 38.0057 213.287 35.2768C213.127 33.735 213.054 32.2615 213.287 30.7879C213.36 29.901 213.607 28.9459 214.073 28.1409C214.931 26.9676 216.662 26.4491 218.234 26.299C219.965 26.1489 221.929 26.1489 223.413 27.0358C224.272 27.5542 224.912 28.5093 225.217 29.3962C225.683 30.7197 225.77 32.1933 225.77 33.5986C225.697 41.4713 223.413 49.2757 223.5 57.162C223.5 59.2223 223.821 61.2143 223.893 63.2746C223.893 64.3116 223.821 65.4031 223.34 66.2899C222.948 67.0267 222.235 67.6817 221.464 68.05C218.947 69.3053 214.786 69.087 212.909 67.0949V67.0813Z" fill="#235A2F"/>
<path d="M218.612 19.3814C217.172 17.9078 220.154 8.22051 202.666 1.6031C199.786 2.09429 196.556 15.7248 213.549 19.8999C218.626 22.2876 217.826 26.2581 217.826 28.4548H221.1C221.1 28.4548 219.761 21.4553 225.741 18.8902C229.8 17.1438 241.017 16.5844 244 0.86632C238.326 -2.21726 218.161 3.78616 218.626 19.3814H218.612ZM214.495 16.7208C214.145 16.9391 213.68 16.8709 213.433 16.5434C211.774 14.2785 207.176 9.06644 205.14 7.16991C204.834 6.89703 204.834 6.43313 205.14 6.16024C205.431 5.87372 205.925 5.87372 206.216 6.16024C208.37 8.19322 212.923 13.3371 214.684 15.7248C214.917 16.0522 214.844 16.4889 214.495 16.7208ZM235.809 5.12329C230.251 8.42517 225.697 13.8965 223.66 16.8845C223.428 17.212 222.962 17.3075 222.613 17.1028C222.264 16.8845 222.162 16.4479 222.395 16.1205C224.533 13.0232 229.145 7.42915 235.009 3.93625C235.358 3.71794 235.838 3.8271 236.056 4.15456C236.274 4.48202 236.173 4.93227 235.823 5.13693L235.809 5.12329Z" fill="#235B2F"/>
</svg>
