<svg width="211" height="198" viewBox="0 0 211 198" fill="none" xmlns="http://www.w3.org/2000/svg">
<path d="M191.264 100.003C188.22 100.003 185.745 102.325 185.745 105.184C185.745 150.369 146.559 187.136 98.3943 187.136C50.2297 187.136 11.0464 150.369 11.0464 105.184C11.0464 60.0015 50.2297 23.2425 98.3943 23.2425C101.441 23.2425 103.916 20.9232 103.916 18.0594C103.916 15.1983 101.441 12.8789 98.3943 12.8789C44.1387 12.8789 0 54.2895 0 105.184C0 156.089 44.1387 197.497 98.3943 197.497C152.65 197.497 196.789 156.089 196.789 105.184C196.789 102.325 194.314 100.003 191.264 100.003Z" fill="#235A2F"/>
<path d="M104.062 72.7363C107.111 72.7363 109.586 70.4169 109.586 67.5583C109.586 64.6972 107.111 62.3752 104.062 62.3752C82.3925 62.3752 64.7656 78.9101 64.7656 99.2426C64.7656 119.575 82.3925 136.11 104.062 136.11C125.736 136.11 143.361 119.575 143.361 99.2426C143.361 96.3814 140.886 94.0621 137.839 94.0621C134.792 94.0621 132.317 96.3814 132.317 99.2426C132.317 113.855 119.64 125.749 104.062 125.749C88.4863 125.749 75.812 113.855 75.812 99.2426C75.812 84.6298 88.4863 72.7363 104.062 72.7363Z" fill="#235A2F"/>
<path d="M104.062 35.7966C66.7676 35.7966 36.4307 64.2585 36.4307 99.2425C36.4307 134.232 66.7676 162.696 104.062 162.696C141.359 162.696 171.696 134.232 171.696 99.2425C171.696 96.3813 169.221 94.062 166.174 94.062C163.124 94.062 160.649 96.3813 160.649 99.2425C160.649 128.52 135.262 152.335 104.062 152.335C72.8614 152.335 47.4743 128.52 47.4743 99.2425C47.4743 69.9731 72.8614 46.1577 104.062 46.1577C107.111 46.1577 109.586 43.8383 109.586 40.9771C109.586 38.1134 107.111 35.7966 104.062 35.7966Z" fill="#235A2F"/>
<mask id="mask0_601_52" style="mask-type:luminance" maskUnits="userSpaceOnUse" x="98" y="0" width="113" height="106">
<path d="M98.2319 0H210.552V105.014H98.2319V0Z" fill="white"/>
</mask>
<g mask="url(#mask0_601_52)">
<path d="M175.889 54.2691L163.537 51.4982L181.425 34.7157L193.78 37.484L175.889 54.2691ZM152.768 32.5873L170.665 15.7944L173.469 26.8056L155.576 43.5933L152.768 32.5873ZM209.983 33.1858C209.444 31.3824 207.898 29.9919 205.951 29.5558L184.293 24.6978L179.12 4.37563C178.656 2.54904 177.171 1.10427 175.249 0.593443C173.307 0.100675 171.256 0.596023 169.842 1.91437L142.775 27.3036C141.414 28.578 140.861 30.4201 141.304 32.1745L146.408 52.1948L100.157 95.5791C98.0011 97.6043 98.0011 100.881 100.157 102.906C101.238 103.917 102.648 104.423 104.062 104.423C105.481 104.423 106.889 103.917 107.967 102.906L153.747 59.963L176.327 65.0274C176.753 65.1203 177.185 65.1642 177.611 65.1642C179.06 65.1642 180.468 64.6353 181.513 63.6472L208.572 38.2606C209.991 36.9345 210.53 34.9918 209.983 33.1858Z" fill="#235A2F"/>
</g>
</svg>
