<svg width="1920" height="269" viewBox="0 0 1920 269" fill="none" xmlns="http://www.w3.org/2000/svg">
<path fill-rule="evenodd" clip-rule="evenodd" d="M0.00195312 67.1162L46.3995 83.8953C91.1972 100.674 182.392 134.232 273.588 111.86C366.383 89.4883 457.578 11.186 548.773 11.186C639.968 11.186 731.164 89.4883 822.359 95.0813C913.554 100.674 1006.35 33.5581 1097.54 16.7791C1188.74 0 1279.93 33.5581 1371.13 55.9302C1462.33 78.3023 1553.52 89.4883 1646.32 78.3023C1737.51 67.1162 1828.71 33.5581 1873.5 16.7791L1919.9 0V268.465H1873.5C1828.71 268.465 1737.51 268.465 1646.32 268.465C1553.52 268.465 1462.33 268.465 1371.13 268.465C1279.93 268.465 1188.74 268.465 1097.54 268.465C1006.35 268.465 913.554 268.465 822.359 268.465C731.164 268.465 639.968 268.465 548.773 268.465C457.578 268.465 366.383 268.465 273.588 268.465C182.392 268.465 91.1972 268.465 46.3995 268.465H0.00195312V67.1162Z" fill="#F3FFE7"/>
</svg>
