<svg width="1920" height="546" viewBox="0 0 1920 546" fill="none" xmlns="http://www.w3.org/2000/svg">
<path fill-rule="evenodd" clip-rule="evenodd" d="M0.100586 67.1162L46.4982 83.8953C91.2958 100.674 182.491 134.232 273.686 111.86C366.481 89.4883 457.677 11.186 548.872 11.186C640.067 11.186 731.262 89.4883 822.458 95.0813C913.653 100.674 1006.45 33.5581 1097.64 16.7791C1188.84 0 1280.03 33.5581 1371.23 55.9302C1462.42 78.3023 1553.62 89.4883 1646.41 78.3023C1737.61 67.1162 1828.8 33.5581 1873.6 16.7791L1920 0V268.465H1873.6C1828.8 268.465 1737.61 268.465 1646.41 268.465C1553.62 268.465 1462.42 268.465 1371.23 268.465C1280.03 268.465 1188.84 268.465 1097.64 268.465C1006.45 268.465 913.653 268.465 822.458 268.465C731.262 268.465 640.067 268.465 548.872 268.465C457.677 268.465 366.481 268.465 273.686 268.465C182.491 268.465 91.2958 268.465 46.4982 268.465H0.100586V67.1162Z" fill="#F3FFE7"/>
<rect x="-1.90137" y="267.047" width="1921.9" height="278.731" fill="#F3FFE7"/>
</svg>
