<svg width="196" height="223" viewBox="0 0 196 223" fill="none" xmlns="http://www.w3.org/2000/svg">
<mask id="mask0_601_64" style="mask-type:luminance" maskUnits="userSpaceOnUse" x="0" y="0" width="196" height="223">
<path d="M0 0H195.507V222.581H0V0Z" fill="white"/>
</mask>
<g mask="url(#mask0_601_64)">
<path d="M31.8694 100.095C31.1944 104.654 30.4993 109.213 29.8243 113.773C29.3866 116.703 28.9662 119.633 28.5343 122.593C29.1063 122.749 29.4839 122.886 29.8729 122.953C37.3039 124.257 44.7178 125.631 52.1775 126.785C53.0184 126.895 53.8364 127.099 54.6259 127.399C55.4153 127.697 56.1533 128.081 56.8426 128.548C57.5319 129.018 58.1497 129.56 58.6961 130.171C59.2452 130.783 59.7029 131.446 60.0776 132.165C61.6765 134.986 63.2525 137.814 64.8486 140.632C66.9308 144.303 69.016 147.974 71.1584 151.771C71.7848 151.511 72.3053 151.304 72.8173 151.079C79.4961 148.132 86.1892 145.218 92.8537 142.226C93.6002 141.866 94.3839 141.595 95.1991 141.413C96.0172 141.23 96.8438 141.142 97.6847 141.144C98.5228 141.15 99.3494 141.246 100.165 141.437C100.98 141.63 101.758 141.909 102.501 142.274C109.069 145.32 115.659 148.315 122.246 151.323C122.687 151.529 123.156 151.685 123.636 151.873C123.982 151.307 124.285 150.848 124.566 150.376C128.092 144.415 131.619 138.453 135.14 132.487C135.512 131.808 135.964 131.18 136.493 130.601C137.022 130.021 137.617 129.506 138.275 129.058C138.936 128.607 139.639 128.237 140.392 127.941C141.144 127.649 141.919 127.44 142.723 127.316C147.036 126.581 151.375 125.961 155.7 125.287C159.098 124.759 162.49 124.214 165.98 123.661C165.903 122.899 165.857 122.314 165.785 121.732C164.913 114.894 164.049 108.084 163.16 101.262C163.04 100.508 163.014 99.7539 163.088 98.9945C163.16 98.2377 163.328 97.4971 163.594 96.7779C163.858 96.056 164.209 95.3771 164.647 94.7357C165.088 94.0971 165.602 93.5148 166.192 92.9915C167.825 91.4565 169.415 89.8867 171.023 88.3302L182.61 77.1024C182.155 76.614 181.786 76.2061 181.403 75.8144C176.383 70.7237 171.36 65.6358 166.337 60.5533C165.808 60.0488 165.351 59.4933 164.959 58.8895C164.567 58.2857 164.252 57.647 164.018 56.9735C163.783 56.3026 163.632 55.6129 163.566 54.9098C163.5 54.2041 163.523 53.501 163.629 52.8006C164.407 47.2189 165.311 41.656 166.149 36.0851C166.455 34.0751 166.729 32.0652 167.018 30.0472C166.506 29.9103 166.24 29.8191 165.977 29.7681C158.506 28.3807 151.043 26.9209 143.558 25.6408C142.771 25.5201 142.011 25.3161 141.276 25.0263C140.543 24.7365 139.854 24.3715 139.21 23.9288C138.57 23.4887 137.989 22.9815 137.474 22.4126C136.959 21.8437 136.522 21.2265 136.161 20.5583C134.929 18.4786 133.782 16.3532 132.595 14.2494C130.06 9.76255 127.518 5.27841 124.878 0.622525C117.478 3.80248 110.293 6.85362 103.125 9.98528C102.39 10.3368 101.623 10.6025 100.82 10.7796C100.019 10.9594 99.2035 11.0453 98.3798 11.0399C97.5531 11.0372 96.7408 10.9406 95.9428 10.7528C95.1419 10.5676 94.3754 10.2939 93.646 9.93429C87.8053 7.22127 81.9331 4.56191 76.0752 1.88646C74.8968 1.34439 73.7126 0.823788 72.4426 0.257568C72.005 0.976748 71.6303 1.57517 71.2728 2.18433C67.8519 7.95923 64.4024 13.7127 61.0243 19.5037C60.6382 20.2202 60.1691 20.883 59.6142 21.4921C59.0622 22.1013 58.4386 22.6434 57.7464 23.113C57.0543 23.5826 56.3134 23.969 55.5211 24.2723C54.7317 24.5782 53.9137 24.7902 53.0699 24.9083C45.9077 26.0756 38.7627 27.3261 31.5834 28.4156C29.8729 28.6759 29.461 29.2421 29.687 30.8227C30.6252 37.4214 31.3202 44.0497 32.3127 50.6377C32.4758 51.4776 32.5272 52.3256 32.47 53.1763C32.41 54.027 32.2412 54.8615 31.9638 55.6746C31.6835 56.4851 31.3059 57.2552 30.8254 57.9798C30.342 58.7043 29.7756 59.3645 29.1206 59.9575C24.1638 64.7288 19.3013 69.5806 14.4016 74.3975C14.0154 74.7839 13.6522 75.1864 13.2374 75.6158C13.6894 76.1069 14.0498 76.5255 14.4359 76.92C19.3356 81.9623 24.2381 87.0019 29.1464 92.0361C29.6898 92.5621 30.1646 93.1417 30.5651 93.7697C30.9684 94.4003 31.2859 95.0658 31.5233 95.7635C31.7578 96.4639 31.9066 97.1804 31.9638 97.9103C32.0238 98.6429 31.9924 99.3702 31.8694 100.095ZM97.6561 27.3663C98.5085 27.3663 99.358 27.3851 100.207 27.4254C101.06 27.4629 101.907 27.522 102.753 27.5998C103.603 27.6776 104.446 27.7742 105.287 27.8923C106.131 28.0077 106.969 28.1446 107.804 28.3002C108.637 28.4558 109.469 28.6303 110.293 28.8235C111.12 29.0167 111.94 29.2287 112.756 29.4595C113.568 29.6903 114.377 29.9398 115.178 30.2109C115.979 30.4792 116.774 30.7637 117.561 31.0696C118.347 31.3755 119.125 31.6975 119.895 32.0383C120.664 32.3791 121.425 32.7387 122.175 33.1144C122.927 33.4901 123.668 33.8846 124.397 34.2925C125.126 34.703 125.847 35.1297 126.554 35.5725C127.263 36.0153 127.958 36.4768 128.642 36.9518C129.325 37.4268 129.997 37.9179 130.655 38.4224C131.313 38.9296 131.957 39.4502 132.589 39.9869C133.218 40.5209 133.836 41.071 134.437 41.6345C135.04 42.2008 135.626 42.7777 136.199 43.3681C136.771 43.9611 137.326 44.5649 137.866 45.1795C138.407 45.7967 138.93 46.4273 139.436 47.0686C139.943 47.7073 140.435 48.3594 140.907 49.0249C141.379 49.6877 141.836 50.3613 142.274 51.0456C142.711 51.7299 143.129 52.4249 143.532 53.128C143.933 53.8311 144.316 54.5449 144.679 55.2668C145.043 55.9886 145.389 56.7158 145.715 57.4538C146.041 58.1918 146.347 58.9351 146.633 59.6865C146.919 60.4379 147.185 61.1973 147.434 61.9594C147.68 62.7242 147.909 63.4917 148.115 64.2672C148.32 65.0401 148.506 65.8183 148.672 66.6019C148.838 67.3855 148.984 68.1717 149.11 68.9607C149.236 69.7496 149.339 70.5413 149.422 71.3356C149.505 72.1299 149.568 72.9269 149.61 73.7239C149.651 74.5209 149.673 75.3179 149.673 76.1149C149.673 76.9146 149.651 77.7116 149.61 78.5086C149.568 79.3056 149.505 80.1026 149.422 80.8969C149.339 81.6885 149.233 82.4829 149.11 83.2718C148.984 84.0608 148.838 84.847 148.672 85.6279C148.506 86.4115 148.318 87.1897 148.112 87.9653C147.906 88.7381 147.677 89.5083 147.431 90.2704C147.182 91.0352 146.916 91.7919 146.63 92.5433C146.341 93.2947 146.035 94.0407 145.709 94.776C145.383 95.514 145.04 96.2439 144.674 96.9657C144.31 97.6849 143.927 98.3987 143.527 99.1018C143.126 99.8049 142.706 100.5 142.268 101.184C141.83 101.869 141.376 102.542 140.901 103.205C140.429 103.87 139.937 104.522 139.431 105.164C138.924 105.803 138.401 106.433 137.86 107.048C137.32 107.665 136.762 108.269 136.193 108.862C135.621 109.452 135.032 110.029 134.431 110.593C133.827 111.159 133.212 111.706 132.58 112.243C131.951 112.78 131.305 113.3 130.647 113.805C129.989 114.312 129.317 114.803 128.633 115.278C127.949 115.753 127.254 116.212 126.545 116.655C125.839 117.097 125.121 117.524 124.388 117.935C123.659 118.343 122.918 118.737 122.166 119.113C121.417 119.488 120.656 119.848 119.886 120.189C119.117 120.53 118.339 120.852 117.552 121.155C116.766 121.461 115.971 121.748 115.17 122.016C114.369 122.285 113.559 122.534 112.747 122.765C111.932 122.996 111.111 123.208 110.284 123.404C109.461 123.597 108.628 123.771 107.793 123.924C106.958 124.08 106.12 124.217 105.279 124.332C104.438 124.45 103.591 124.547 102.745 124.625C101.898 124.702 101.048 124.759 100.199 124.799C99.3494 124.837 98.497 124.855 97.6475 124.855C96.7952 124.855 95.9457 124.834 95.0961 124.794C94.2466 124.753 93.3971 124.694 92.5505 124.617C91.7038 124.539 90.8572 124.439 90.0163 124.321C89.1753 124.203 88.3373 124.066 87.5021 123.911C86.6669 123.755 85.8374 123.578 85.0108 123.385C84.187 123.189 83.3661 122.977 82.5509 122.743C81.7386 122.51 80.9291 122.26 80.1282 121.989C79.3274 121.721 78.535 121.434 77.7485 121.128C76.9619 120.822 76.1839 120.497 75.4145 120.154C74.6479 119.813 73.8871 119.454 73.1377 119.078C72.3854 118.699 71.6475 118.305 70.9181 117.894C70.1887 117.484 69.4679 117.057 68.7614 116.612C68.0549 116.169 67.3599 115.707 66.6763 115.232C65.9927 114.755 65.3234 114.264 64.6655 113.756C64.0076 113.249 63.3641 112.729 62.7348 112.192C62.1055 111.655 61.4877 111.105 60.887 110.539C60.2864 109.975 59.7 109.396 59.1308 108.805C58.5588 108.212 58.0039 107.609 57.4633 106.991C56.9255 106.371 56.4021 105.743 55.8958 105.102C55.3896 104.461 54.9005 103.806 54.4285 103.143C53.9566 102.478 53.5018 101.804 53.067 101.12C52.6294 100.433 52.2118 99.7405 51.8113 99.0347C51.4109 98.3316 51.0276 97.6178 50.6672 96.896C50.304 96.1741 49.9579 95.4442 49.6347 94.7062C49.3086 93.9683 49.0054 93.2249 48.7194 92.4709C48.4333 91.7195 48.1673 90.9627 47.9213 90.1979C47.6754 89.4331 47.4494 88.6657 47.2435 87.8901C47.0375 87.1173 46.8516 86.3364 46.6886 85.5555C46.5227 84.7719 46.3796 83.9856 46.2538 83.1967C46.1308 82.405 46.0278 81.6134 45.9449 80.8191C45.8648 80.0248 45.8019 79.2305 45.7618 78.4335C45.7218 77.6365 45.7018 76.8368 45.7018 76.0398C45.7046 75.2428 45.7275 74.4484 45.7733 73.6515C45.8162 72.8571 45.882 72.0628 45.9649 71.2712C46.0507 70.4795 46.1565 69.6879 46.2853 68.9016C46.4111 68.1127 46.557 67.3291 46.7257 66.5482C46.8916 65.7673 47.0804 64.9918 47.2892 64.2189C47.4952 63.4461 47.724 62.6813 47.9728 61.9192C48.2217 61.157 48.4877 60.4003 48.7766 59.6516C49.0626 58.9029 49.3715 58.1596 49.6976 57.4243C50.0237 56.689 50.3669 55.9618 50.733 55.2426C51.0963 54.5234 51.4795 53.8123 51.88 53.1119C52.2833 52.4088 52.7009 51.7165 53.1385 51.0349C53.5761 50.3506 54.0309 49.6797 54.5029 49.0169C54.9777 48.3567 55.4668 47.7046 55.9731 47.066C56.4793 46.4273 57.0028 45.7993 57.5405 45.1848C58.0811 44.5676 58.636 43.9665 59.2081 43.3761C59.7773 42.7858 60.3636 42.2115 60.9643 41.648C61.5649 41.0844 62.1799 40.537 62.8092 40.0003C63.4384 39.4663 64.082 38.9457 64.7399 38.4412C65.3949 37.9367 66.0642 37.4456 66.7478 36.9733C67.4285 36.4983 68.1236 36.0394 68.8301 35.5967C69.5366 35.1539 70.2545 34.7272 70.981 34.3193C71.7104 33.9087 72.4483 33.5169 73.1977 33.1412C73.9471 32.7656 74.7051 32.406 75.4717 32.0652C76.2411 31.7244 77.0162 31.4023 77.8 31.0964C78.5837 30.7905 79.376 30.5034 80.1769 30.235C80.9749 29.9667 81.7815 29.7144 82.5938 29.4836C83.4061 29.2502 84.2242 29.0382 85.0479 28.845C85.8717 28.6491 86.7012 28.4746 87.5335 28.319C88.3659 28.1607 89.2011 28.0238 90.042 27.9057C90.8829 27.7877 91.7239 27.6884 92.5705 27.6105C93.4143 27.53 94.2609 27.471 95.1105 27.4307C95.9571 27.3905 96.8066 27.369 97.6561 27.3663ZM97.3501 115.155C98.7144 115.165 100.079 115.112 101.437 114.996C102.796 114.881 104.146 114.704 105.485 114.462C106.826 114.223 108.151 113.923 109.461 113.561C110.768 113.198 112.055 112.777 113.319 112.297C114.586 111.814 115.822 111.277 117.029 110.681C118.239 110.088 119.411 109.439 120.553 108.736C121.694 108.033 122.795 107.278 123.856 106.473C124.918 105.671 125.933 104.818 126.905 103.921C127.878 103.022 128.799 102.081 129.674 101.098C130.547 100.116 131.368 99.0938 132.134 98.0365C132.901 96.9765 133.61 95.8843 134.259 94.7599C134.911 93.6355 135.503 92.4843 136.036 91.3062C136.568 90.1282 137.034 88.9286 137.44 87.705C137.846 86.484 138.186 85.2469 138.461 83.9937C138.738 82.7405 138.947 81.4765 139.09 80.2046C139.233 78.9326 139.311 77.6552 139.319 76.3752C139.328 75.0979 139.271 73.8205 139.148 72.5458C139.022 71.2712 138.83 70.0046 138.575 68.7487C138.318 67.4928 137.995 66.2503 137.609 65.024C137.22 63.7976 136.771 62.59 136.256 61.4039C135.741 60.2205 135.169 59.0612 134.534 57.9288C133.896 56.7963 133.204 55.6934 132.454 54.6254C131.702 53.5574 130.898 52.5269 130.04 51.5313C129.179 50.5357 128.273 49.5831 127.314 48.6734C126.353 47.7637 125.349 46.8996 124.303 46.0811C123.253 45.2626 122.163 44.4952 121.033 43.776C119.903 43.0595 118.739 42.394 117.538 41.7848C116.34 41.173 115.11 40.6202 113.854 40.1237C112.595 39.6273 111.314 39.1872 110.013 38.8088C108.708 38.4304 107.39 38.1111 106.051 37.8535C104.715 37.5959 103.368 37.4 102.009 37.2685C100.654 37.1343 99.2922 37.0645 97.9278 37.0565C96.5635 37.0484 95.202 37.1048 93.8433 37.2202C92.4818 37.3382 91.1346 37.518 89.7932 37.7622C88.4545 38.0038 87.1302 38.307 85.8202 38.6693C84.5131 39.0342 83.2259 39.4582 81.9617 39.9412C80.7003 40.4243 79.4646 40.9637 78.2576 41.5594C77.0477 42.1551 75.875 42.8072 74.7366 43.513C73.5982 44.2161 72.497 44.9728 71.4387 45.7779C70.3775 46.5829 69.3621 47.4363 68.3925 48.3353C67.4228 49.2369 66.5018 50.1788 65.6294 51.1637C64.757 52.1485 63.939 53.1709 63.1753 54.2309C62.4116 55.2909 61.7022 56.3831 61.0529 57.5075C60.4037 58.6319 59.8144 59.7858 59.2853 60.9638C58.7561 62.1446 58.2899 63.3441 57.8866 64.5678C57.4833 65.7888 57.1458 67.0286 56.8712 68.2818C56.5966 69.535 56.3907 70.7989 56.2505 72.0709C56.1075 73.3428 56.0331 74.6202 56.0274 75.9002C56.0246 77.1749 56.0903 78.4469 56.2191 79.7189C56.3506 80.9882 56.5451 82.2494 56.8083 83.4999C57.0686 84.7531 57.3946 85.9902 57.7865 87.2112C58.1755 88.4322 58.6303 89.6344 59.1451 90.8151C59.66 91.9959 60.2349 93.1498 60.8727 94.2769C61.5077 95.4039 62.1999 96.5015 62.9493 97.5642C63.6987 98.6295 64.5025 99.6573 65.3605 100.648C66.2158 101.64 67.1225 102.588 68.0778 103.497C69.036 104.404 70.0343 105.266 71.0811 106.082C72.1251 106.9 73.2121 107.665 74.3361 108.381C75.4631 109.098 76.6215 109.763 77.8171 110.373C79.0099 110.984 80.2341 111.54 81.4869 112.039C82.7397 112.535 84.0125 112.978 85.3111 113.359C86.6097 113.74 87.9254 114.062 89.2554 114.325C90.5883 114.586 91.9298 114.787 93.2827 114.926C94.6356 115.063 95.9914 115.141 97.3501 115.155ZM73.8928 74.5236C74.1674 74.2633 74.4677 74.0325 74.7938 73.8286C75.1199 73.6273 75.4631 73.4582 75.8264 73.3241C76.1896 73.1899 76.5643 73.0906 76.9476 73.0262C77.3337 72.9645 77.7199 72.9376 78.1117 72.951C78.5007 72.9645 78.8869 73.0128 79.2644 73.0986C79.6448 73.1872 80.011 73.308 80.3628 73.4663C80.7146 73.6246 81.0464 73.8125 81.3582 74.0352C81.6671 74.2579 81.9502 74.5075 82.2077 74.7839C84.6389 77.0192 86.9901 79.311 89.5214 81.7154L104.77 67.3881C107.501 64.8227 110.233 62.26 112.967 59.6972C113.219 59.4155 113.499 59.1578 113.805 58.9297C114.114 58.7016 114.446 58.5057 114.798 58.342C115.15 58.1784 115.516 58.0495 115.896 57.9556C116.277 57.8644 116.663 57.808 117.055 57.7919C117.446 57.7758 117.838 57.7973 118.224 57.8563C118.613 57.9154 118.991 58.0093 119.357 58.1435C119.723 58.275 120.072 58.444 120.401 58.6426C120.73 58.8439 121.033 59.0746 121.311 59.3349C121.591 59.5952 121.837 59.8797 122.052 60.1883C122.269 60.4942 122.446 60.8216 122.589 61.1651C122.732 61.5086 122.835 61.8601 122.901 62.2251C122.964 62.5874 122.99 62.9523 122.973 63.3226C122.955 63.6903 122.898 64.0525 122.801 64.4095C122.704 64.7664 122.566 65.1098 122.395 65.4399C122.22 65.77 122.011 66.0813 121.768 66.3711C121.528 66.6609 121.256 66.9239 120.953 67.16C111.926 75.6668 102.873 84.1627 93.8033 92.6426C93.5401 92.9271 93.2484 93.182 92.928 93.4074C92.6077 93.6328 92.2673 93.8234 91.9012 93.979C91.5379 94.1346 91.1604 94.2527 90.7685 94.3332C90.3795 94.411 89.9819 94.4513 89.5815 94.4513C89.1811 94.4513 88.7863 94.411 88.3945 94.3332C88.0055 94.2527 87.6279 94.1346 87.2618 93.979C86.8985 93.8234 86.5582 93.6328 86.2378 93.4074C85.9175 93.182 85.6257 92.9271 85.3626 92.6426C81.6299 89.1809 77.9258 85.6977 74.2503 82.1984C73.9643 81.9596 73.7069 81.6966 73.4781 81.4121C73.2464 81.125 73.049 80.8191 72.886 80.4971C72.7201 80.1724 72.5942 79.8369 72.4998 79.4908C72.4083 79.1419 72.354 78.7877 72.3368 78.4308C72.3196 78.0739 72.3425 77.717 72.4026 77.3627C72.4627 77.0085 72.557 76.665 72.6915 76.3296C72.8259 75.9915 72.9947 75.6721 73.1949 75.3689C73.398 75.0657 73.6297 74.7839 73.8928 74.5236ZM191.454 186.243C192.789 188.441 194.111 190.647 195.641 193.188H193.213C182.361 193.188 171.506 193.223 160.654 193.164C160.062 193.124 159.478 193.164 158.904 193.29C158.326 193.414 157.782 193.612 157.27 193.889C156.758 194.168 156.301 194.508 155.897 194.914C155.494 195.319 155.162 195.772 154.905 196.272C150.1 204.411 145.183 212.499 140.32 220.608C140.011 221.115 139.688 221.615 139.176 222.43L105.699 167.966C105.256 167.386 104.752 166.855 104.189 166.377C103.623 165.9 103.011 165.486 102.35 165.132C101.686 164.781 100.994 164.499 100.268 164.287C99.5382 164.078 98.7974 163.941 98.0394 163.882C97.1556 163.871 96.2832 163.957 95.4222 164.145C94.5613 164.332 93.7375 164.614 92.9509 164.993C92.1643 165.368 91.4378 165.827 90.7714 166.372C90.1049 166.914 89.5186 167.526 89.0094 168.205C72.4712 194.97 66.007 205.648 64.0076 209.171C63.4556 210.148 60.8098 214.407 57.2774 220.144C56.9971 220.6 56.6824 221.035 56.2734 221.647L46.9803 206.6C44.8408 203.136 42.6756 199.682 40.5675 196.202C40.3072 195.719 39.9783 195.279 39.5807 194.884C39.1831 194.492 38.7341 194.16 38.2335 193.889C37.7301 193.62 37.1981 193.422 36.6346 193.298C36.0711 193.175 35.502 193.132 34.9242 193.164C24.0093 193.223 13.103 193.188 2.19098 193.186H0C0.348956 192.552 0.560618 192.093 0.820904 191.653C12.202 172.769 23.5717 153.883 34.9356 134.999C35.0271 134.763 35.1616 134.556 35.3418 134.371C35.522 134.189 35.7336 134.044 35.9739 133.939C36.217 133.834 36.4687 133.778 36.7347 133.77C37.0007 133.759 37.2582 133.797 37.507 133.885C41.4027 134.634 45.3528 135.16 49.2485 135.906C50.1209 136.121 50.7931 136.585 51.2707 137.299C54.8347 143.302 58.3185 149.348 61.7995 155.391C61.9425 155.702 62.1027 156.006 62.28 156.303C62.4573 156.599 62.6518 156.886 62.8606 157.162C63.0723 157.439 63.2954 157.704 63.5357 157.959C63.7731 158.214 64.0248 158.458 64.2937 158.686C64.5597 158.917 64.8371 159.135 65.126 159.338C65.4177 159.54 65.7181 159.73 66.0299 159.902C66.3388 160.076 66.6591 160.235 66.9881 160.377C67.317 160.519 67.6516 160.645 67.9949 160.755C68.3381 160.865 68.6871 160.957 69.0389 161.034C69.3936 161.11 69.7482 161.166 70.1086 161.209C70.469 161.249 70.8294 161.271 71.1898 161.276C71.5531 161.284 71.9135 161.271 72.2739 161.241C72.6343 161.212 72.9947 161.163 73.3493 161.099C73.704 161.034 74.0558 160.951 74.4019 160.852C74.748 160.753 75.0884 160.637 75.4231 160.506C75.7548 160.372 76.0809 160.224 76.3984 160.06C80.2426 158.464 83.4977 157.299 86.2178 155.828C88.9379 154.355 91.8469 153.344 94.5527 151.884C95.365 151.419 96.246 151.183 97.1985 151.17C97.8563 151.173 98.4827 151.304 99.0777 151.564C105.428 154.524 111.886 157.294 118.176 160.382C118.502 160.546 118.837 160.696 119.177 160.83C119.517 160.962 119.866 161.08 120.221 161.182C120.576 161.281 120.933 161.365 121.296 161.432C121.66 161.499 122.026 161.55 122.395 161.582C122.761 161.614 123.13 161.63 123.502 161.628C123.871 161.628 124.24 161.606 124.609 161.571C124.978 161.534 125.341 161.48 125.704 161.41C126.067 161.338 126.425 161.252 126.777 161.147C127.129 161.042 127.475 160.922 127.815 160.785C128.155 160.648 128.487 160.495 128.81 160.326C129.136 160.16 129.448 159.977 129.754 159.779C130.057 159.58 130.349 159.371 130.632 159.145C130.913 158.92 131.182 158.681 131.439 158.431C131.696 158.182 131.937 157.919 132.166 157.645C132.394 157.374 132.606 157.09 132.806 156.797C133.004 156.505 133.187 156.201 133.353 155.893C136.542 149.957 140.217 144.246 143.601 138.402C143.833 137.938 144.167 137.556 144.611 137.259C145.054 136.961 145.543 136.784 146.087 136.727C150.251 136.075 154.384 135.38 158.515 134.597C158.735 134.519 158.966 134.481 159.204 134.489C159.438 134.495 159.667 134.546 159.882 134.637C160.099 134.728 160.288 134.854 160.451 135.018C160.614 135.182 160.737 135.367 160.82 135.573C170.98 152.477 181.191 169.367 191.454 186.243Z" fill="#235A2F"/>
</g>
</svg>
