<svg width="213" height="185" viewBox="0 0 213 185" fill="none" xmlns="http://www.w3.org/2000/svg">
<path d="M134.252 122.06C136.277 122.194 138.343 123.083 140.514 125.129L192.463 174.116H171.309L134.252 122.06ZM85.7965 83.5647C87.6916 83.4844 89.9059 84.0835 92.1124 85.1722C100.946 89.5171 104.986 92.4786 106.982 96.1319C109.316 100.367 109.741 107.247 109.741 119.391C109.71 120.026 109.783 120.611 109.895 121.156L92.1254 130.786C86.2067 133.989 82.2557 135.385 75.8152 135.674C78.1074 119.308 79.1406 106.702 80.0024 90.5229C80.249 85.7323 82.6113 83.7011 85.7965 83.5647ZM119.188 14.9985L128.715 15.3054C128.585 15.5051 128.445 15.7024 128.318 15.9435C124.806 23.1574 120.094 27.0737 114.754 29.6114C117.09 25.8389 118.69 21.1213 119.188 14.9985ZM168.178 2.9502C166.818 2.9502 165.73 3.69545 165.73 4.62581V5.19815L106.343 6.64239C99.6458 6.80313 99.9158 14.4165 106.343 14.6137L112.335 14.7988C110.692 22.5412 106.829 26.5281 102.252 29.7673C99.6328 31.6256 93.9997 34.3899 90.1473 34.4702L71.7551 34.8161C67.7314 34.8965 64.6319 38.1503 65.1537 41.896C68.5985 66.1632 67.9157 96.5142 62.537 134.608C62.4617 134.992 62.4617 135.365 62.4617 135.738H58.952C47.8648 135.738 45.0482 137.849 36.4245 145.555L1.27816 176.985C-1.0426 179.055 -0.224884 184.594 3.91044 184.594H209.794C212.893 184.594 214.394 179.92 211.294 176.985L146.048 115.457C142.689 112.299 138.709 110.969 134.366 111.103C130.8 111.207 126.973 112.335 123.038 114.169C122.983 104.649 122.545 97.1815 118.832 90.4085C114.951 83.3699 107.392 78.5062 96.6138 73.6207L95.7364 46.4504C115.574 44.4338 132.002 33.2379 137.069 20.4711C137.861 18.5056 137.648 16.8203 136.97 15.5441L165.73 16.4306V17.0443C165.73 17.9601 166.818 18.7029 168.178 18.7029C169.536 18.7029 170.626 17.9601 170.626 17.0443V4.62581C170.626 3.69545 169.536 2.9502 168.178 2.9502Z" fill="#235A2F"/>
<path fill-rule="evenodd" clip-rule="evenodd" d="M92.6656 17.3514C89.9217 23.9393 81.9185 27.2078 74.7978 24.67C67.6876 22.1468 64.1623 14.7454 66.9114 8.1842C69.6735 1.59621 77.6586 -1.66977 84.7662 0.850955C91.8843 3.38873 95.4095 10.7756 92.6656 17.3514Z" fill="#235A2F"/>
</svg>
