<svg width="1920" height="214" viewBox="0 0 1920 214" fill="none" xmlns="http://www.w3.org/2000/svg">
<path fill-rule="evenodd" clip-rule="evenodd" d="M0 53.5L46.4 66.875C91.2 80.25 182.4 107 273.6 89.1667C366.4 71.3333 457.6 8.91667 548.8 8.91667C640 8.91667 731.2 71.3333 822.4 75.7917C913.6 80.25 1006.4 26.75 1097.6 13.375C1188.8 0 1280 26.75 1371.2 44.5833C1462.4 62.4167 1553.6 71.3333 1646.4 62.4167C1737.6 53.5 1828.8 26.75 1873.6 13.375L1920 0V214H1873.6C1828.8 214 1737.6 214 1646.4 214C1553.6 214 1462.4 214 1371.2 214C1280 214 1188.8 214 1097.6 214C1006.4 214 913.6 214 822.4 214C731.2 214 640 214 548.8 214C457.6 214 366.4 214 273.6 214C182.4 214 91.2 214 46.4 214H0V53.5Z" fill="#F3FFE7"/>
</svg>
