<svg width="1921" height="268" viewBox="0 0 1921 268" fill="none" xmlns="http://www.w3.org/2000/svg">
<path fill-rule="evenodd" clip-rule="evenodd" d="M0 67L46.4242 83.75C91.2475 100.5 182.495 134 273.742 111.667C366.591 89.3333 457.838 11.1667 549.086 11.1667C640.333 11.1667 731.581 89.3333 822.828 94.9167C914.076 100.5 1006.92 33.5 1098.17 16.75C1189.42 0 1280.67 33.5 1371.91 55.8333C1463.16 78.1667 1554.41 89.3333 1647.26 78.1667C1738.5 67 1829.75 33.5 1874.58 16.75L1921 0V268H1874.58C1829.75 268 1738.5 268 1647.26 268C1554.41 268 1463.16 268 1371.91 268C1280.67 268 1189.42 268 1098.17 268C1006.92 268 914.076 268 822.828 268C731.581 268 640.333 268 549.086 268C457.838 268 366.591 268 273.742 268C182.495 268 91.2475 268 46.4242 268H0V67Z" fill="#F3FFE7"/>
</svg>
