<svg width="347" height="201" viewBox="0 0 347 201" fill="none" xmlns="http://www.w3.org/2000/svg">
<path d="M22.82 59.72C20.8133 60.7933 18.6433 61.47 16.31 61.75C13.9767 62.03 11.6667 62.1467 9.38 62.1C8.86667 62.1 8.35333 62.0767 7.84 62.03C7.37333 62.03 6.90667 61.9133 6.44 61.68C5.74 61.4 5.20333 60.91 4.83 60.21C4.59667 59.6967 4.43333 59.16 4.34 58.6C4.24667 57.9933 4.15333 57.3867 4.06 56.78C3.96667 55.4733 3.89667 54.1667 3.85 52.86C3.85 51.5533 3.80333 50.2467 3.71 48.94C3.57 45.9067 3.52333 42.92 3.57 39.98C3.66333 36.9933 3.78 33.9833 3.92 30.95C4.01333 28.57 4.13 26.2367 4.27 23.95C4.41 21.6167 4.64333 19.26 4.97 16.88C5.11 16.04 5.25 15.1767 5.39 14.29C5.57667 13.4033 5.83333 12.5633 6.16 11.77C6.39333 11.21 6.69667 10.6733 7.07 10.16C7.49 9.64666 7.98 9.27333 8.54 9.04C9.1 8.76 9.68333 8.59667 10.29 8.55C10.9433 8.45666 11.5967 8.43333 12.25 8.48C13.79 8.66666 15.3067 8.94666 16.8 9.32C18.34 9.69333 19.81 10.2067 21.21 10.86C22.1433 11.28 23.03 11.77 23.87 12.33C24.71 12.89 25.5033 13.5433 26.25 14.29C27.5567 15.5967 28.6533 17.09 29.54 18.77C30.4267 20.4033 31.1267 22.1067 31.64 23.88C32.9933 28.7333 33.5533 33.7267 33.32 38.86C33.2267 41.0533 32.9467 43.2467 32.48 45.44C32.0133 47.6333 31.29 49.71 30.31 51.67C29.7967 52.6033 29.26 53.5367 28.7 54.47C28.14 55.3567 27.4633 56.1733 26.67 56.92C26.11 57.48 25.5033 57.9933 24.85 58.46C24.1967 58.9267 23.52 59.3467 22.82 59.72ZM14.07 48.03C14.3967 48.2633 14.84 48.4033 15.4 48.45C15.96 48.45 16.52 48.4033 17.08 48.31C17.6867 48.2167 18.2467 48.1 18.76 47.96C19.32 47.7733 19.7867 47.5633 20.16 47.33C20.6267 47.0967 21.07 46.7933 21.49 46.42C21.91 46 22.2367 45.5333 22.47 45.02C22.9833 43.9467 23.3333 42.8267 23.52 41.66C23.7067 40.4467 23.8467 39.2333 23.94 38.02C24.0333 36.2 24.01 34.38 23.87 32.56C23.7767 30.6933 23.4267 28.92 22.82 27.24C22.4467 26.1667 21.9333 25.1167 21.28 24.09C20.6267 23.0167 19.7867 22.2 18.76 21.64C18.48 21.5 18.1533 21.36 17.78 21.22C17.4533 21.0333 17.1033 20.8933 16.73 20.8C16.3567 20.7067 15.9833 20.6833 15.61 20.73C15.2833 20.73 15.0267 20.8467 14.84 21.08C14.6067 21.3133 14.3967 21.6867 14.21 22.2C14.0233 22.7133 13.86 23.2733 13.72 23.88C13.6267 24.4867 13.5333 25.07 13.44 25.63C13.3467 26.19 13.2767 26.6333 13.23 26.96C12.95 29.3867 12.7633 31.8133 12.67 34.24C12.6233 36.6667 12.6467 39.1167 12.74 41.59C12.74 42.01 12.74 42.5467 12.74 43.2C12.7867 43.8067 12.8333 44.4367 12.88 45.09C12.9733 45.7433 13.09 46.35 13.23 46.91C13.4167 47.4233 13.6967 47.7967 14.07 48.03ZM49.052 59.23C48.352 60.0233 47.3953 60.56 46.182 60.84C45.0153 61.12 43.8953 61.1433 42.822 60.91C42.3086 60.8167 41.7953 60.63 41.282 60.35C40.8153 60.07 40.4653 59.6967 40.232 59.23C39.8586 58.5767 39.602 57.8767 39.462 57.13C39.322 56.3833 39.2053 55.6367 39.112 54.89C38.972 52.8367 38.9486 50.7833 39.042 48.73C39.182 46.6767 39.322 44.6233 39.462 42.57C39.6486 40.47 39.8353 38.3933 40.022 36.34C40.2086 34.2867 40.302 32.2333 40.302 30.18C40.3486 27.1467 40.4186 24.1367 40.512 21.15C40.6053 18.1167 40.8386 15.1067 41.212 12.12C41.3053 11.6067 41.3986 11.0933 41.492 10.58C41.632 10.0667 41.8653 9.6 42.192 9.18C42.612 8.62 43.172 8.22333 43.872 7.99C44.6186 7.75666 45.412 7.64 46.252 7.64C47.092 7.59333 47.932 7.64 48.772 7.78C49.612 7.92 50.3586 8.08333 51.012 8.27C52.6453 8.83 53.532 9.95 53.672 11.63C53.812 12.8433 53.812 14.08 53.672 15.34C53.532 16.6 53.3686 17.8367 53.182 19.05C52.8086 22.2233 52.3886 25.3733 51.922 28.5C51.4553 31.6267 51.1053 34.7767 50.872 37.95C50.6386 40.61 50.5453 43.27 50.592 45.93C50.6386 48.59 50.6153 51.25 50.522 53.91C50.4753 54.8433 50.3586 55.8 50.172 56.78C50.032 57.7133 49.6586 58.53 49.052 59.23ZM82.1581 61.75C80.9448 61.9367 79.7081 61.9367 78.4481 61.75C77.2348 61.5633 76.0215 61.33 74.8081 61.05C73.4548 60.6767 72.1248 60.2567 70.8181 59.79C69.5115 59.2767 68.2748 58.6233 67.1081 57.83C66.1748 57.1767 65.3115 56.4067 64.5181 55.52C63.7715 54.6333 63.0948 53.7 62.4881 52.72C61.6015 51.2267 60.9015 49.6633 60.3881 48.03C59.8748 46.3967 59.4781 44.74 59.1981 43.06C59.1981 42.92 59.1515 42.6867 59.0581 42.36C59.0115 42.0333 58.9648 41.7067 58.9181 41.38C58.8715 41.0067 58.8248 40.6567 58.7781 40.33C58.7315 40.0033 58.7081 39.77 58.7081 39.63C58.5681 36.9233 58.6615 34.2167 58.9881 31.51C59.3148 28.7567 59.9448 26.0733 60.8781 23.46C61.6248 21.4067 62.6748 19.5633 64.0281 17.93C65.2881 16.3433 66.7115 14.92 68.2981 13.66C69.8848 12.3533 71.5415 11.1867 73.2681 10.16C74.2948 9.55333 75.3215 8.99333 76.3481 8.48C77.4215 7.96666 78.5415 7.61666 79.7081 7.43C80.5948 7.29 81.5048 7.33667 82.4381 7.57C83.3715 7.80333 84.1881 8.2 84.8881 8.76C85.4015 9.18 85.8215 9.69333 86.1481 10.3C86.4748 10.86 86.7081 11.49 86.8481 12.19C86.9881 12.8433 87.0348 13.52 86.9881 14.22C86.9415 14.8733 86.7781 15.48 86.4981 16.04C86.1715 16.6467 85.7515 17.1833 85.2381 17.65C84.7715 18.1167 84.2581 18.5367 83.6981 18.91C82.8581 19.47 81.9481 19.9133 80.9681 20.24C80.0348 20.5667 79.1015 20.9633 78.1681 21.43C76.3015 22.3167 74.6681 23.5767 73.2681 25.21C72.1481 26.47 71.2615 27.8933 70.6081 29.48C70.0015 31.02 69.6515 32.6067 69.5581 34.24C69.5115 35.64 69.5348 37.0633 69.6281 38.51C69.7681 39.9567 70.0948 41.3567 70.6081 42.71C71.3548 44.5767 72.4748 46.1167 73.9681 47.33C76.0215 48.87 78.3315 49.9433 80.8981 50.55C81.6448 50.69 82.3681 50.8067 83.0681 50.9C83.8148 50.9933 84.5381 51.1333 85.2381 51.32C85.7515 51.3667 86.2415 51.5533 86.7081 51.88C87.1281 52.2067 87.4548 52.6267 87.6881 53.14C87.9215 53.6067 88.0848 54.0967 88.1781 54.61C88.3181 55.5433 88.2481 56.4067 87.9681 57.2C87.6881 57.9933 87.2681 58.7167 86.7081 59.37C86.1481 59.9767 85.4715 60.49 84.6781 60.91C83.8848 61.33 83.0448 61.61 82.1581 61.75ZM122.737 60.14C122.177 60.7467 121.454 61.1433 120.567 61.33C119.681 61.5167 118.817 61.5867 117.977 61.54C117.464 61.54 116.904 61.47 116.297 61.33C115.737 61.2367 115.271 61.0033 114.897 60.63C114.384 60.07 114.011 59.3467 113.777 58.46C113.404 56.8267 113.147 55.17 113.007 53.49C112.914 51.7633 112.774 50.06 112.587 48.38C112.541 48.0067 112.494 47.5167 112.447 46.91C112.401 46.2567 112.331 45.6033 112.237 44.95C112.144 44.2967 112.004 43.69 111.817 43.13C111.677 42.5233 111.467 42.1033 111.187 41.87C110.907 41.59 110.487 41.4033 109.927 41.31C109.367 41.2167 108.761 41.17 108.107 41.17C107.454 41.17 106.801 41.1933 106.147 41.24C105.541 41.2867 105.051 41.3333 104.677 41.38C104.444 41.4267 104.094 41.52 103.627 41.66C103.207 41.7533 102.927 41.87 102.787 42.01C102.647 42.15 102.531 42.3833 102.437 42.71C102.344 42.99 102.251 43.3167 102.157 43.69C102.064 44.0633 101.971 44.4133 101.877 44.74C101.831 45.0667 101.784 45.3233 101.737 45.51C101.457 47.2833 101.294 49.0567 101.247 50.83C101.201 52.6033 101.084 54.3767 100.897 56.15C100.851 56.71 100.781 57.27 100.687 57.83C100.594 58.39 100.407 58.9267 100.127 59.44C99.7073 60.14 99.1007 60.6767 98.3073 61.05C97.934 61.19 97.444 61.2833 96.8373 61.33C96.2307 61.4233 95.6007 61.47 94.9473 61.47C94.3407 61.47 93.734 61.4233 93.1273 61.33C92.5207 61.2367 92.054 61.0733 91.7273 60.84C91.4007 60.6533 91.1207 60.3967 90.8873 60.07C90.654 59.7433 90.4907 59.3933 90.3973 59.02C90.2573 58.4133 90.304 57.41 90.5373 56.01C90.8173 54.61 91.144 53.1633 91.5173 51.67C91.9373 50.13 92.334 48.6833 92.7073 47.33C93.1273 45.93 93.384 44.9033 93.4773 44.25C93.7107 42.99 93.944 41.73 94.1773 40.47C94.4573 39.21 94.7607 37.95 95.0873 36.69C95.1807 36.27 95.3673 35.57 95.6473 34.59C95.9273 33.61 96.254 32.5133 96.6273 31.3C97.0007 30.04 97.3973 28.7333 97.8173 27.38C98.284 26.0267 98.704 24.7433 99.0773 23.53C99.4973 22.27 99.8707 21.1733 100.197 20.24C100.524 19.26 100.781 18.56 100.967 18.14C101.481 16.9267 102.064 15.7833 102.717 14.71C103.417 13.59 104.257 12.6333 105.237 11.84C105.891 11.3267 106.591 10.8833 107.337 10.51C108.084 10.1367 108.854 9.90333 109.647 9.81C110.581 9.71666 111.397 9.88 112.097 10.3C113.031 10.86 113.871 11.7233 114.617 12.89C115.364 14.0567 116.017 15.41 116.577 16.95C117.137 18.49 117.627 20.1467 118.047 21.92C118.514 23.6933 118.911 25.4433 119.237 27.17C119.564 28.85 119.821 30.46 120.007 32C120.241 33.4933 120.451 34.7767 120.637 35.85C121.104 38.79 121.594 41.7067 122.107 44.6C122.667 47.4467 123.134 50.34 123.507 53.28C123.601 54.1667 123.694 55.0533 123.787 55.94C123.881 56.78 123.834 57.6433 123.647 58.53C123.507 59.1367 123.204 59.6733 122.737 60.14ZM105.937 33.75C106.451 33.8433 107.174 33.8433 108.107 33.75C109.087 33.61 109.764 33.3533 110.137 32.98C110.511 32.7 110.744 32.3267 110.837 31.86C110.931 31.3467 110.977 30.8567 110.977 30.39C110.977 29.41 110.884 28.4533 110.697 27.52C110.557 26.54 110.371 25.5833 110.137 24.65C110.044 24.2767 109.927 23.88 109.787 23.46C109.647 23.04 109.461 22.6433 109.227 22.27C109.134 22.13 108.994 21.9667 108.807 21.78C108.667 21.5467 108.504 21.43 108.317 21.43C108.037 21.4767 107.757 21.6867 107.477 22.06C107.197 22.4333 106.987 22.7367 106.847 22.97C106.334 23.8567 105.914 24.7667 105.587 25.7C105.307 26.6333 105.051 27.59 104.817 28.57C104.724 28.85 104.631 29.2 104.537 29.62C104.444 30.04 104.374 30.4833 104.327 30.95C104.281 31.37 104.281 31.79 104.327 32.21C104.374 32.5833 104.467 32.8633 104.607 33.05C104.701 33.19 104.887 33.3533 105.167 33.54C105.494 33.68 105.751 33.75 105.937 33.75ZM137.756 62.94C136.916 63.0333 136.053 63.08 135.166 63.08C134.326 63.08 133.486 62.9633 132.646 62.73C132.086 62.6367 131.526 62.45 130.966 62.17C130.453 61.9367 129.986 61.6333 129.566 61.26C128.913 60.6533 128.47 59.93 128.236 59.09C128.05 58.25 128.026 57.4333 128.166 56.64C128.306 55.8 128.633 55.03 129.146 54.33C129.66 53.63 130.313 53.1167 131.106 52.79C131.76 52.51 132.46 52.3233 133.206 52.23C133.953 52.1367 134.7 52.0667 135.446 52.02C136.753 51.9267 138.06 51.81 139.366 51.67C140.72 51.4833 141.98 51.0867 143.146 50.48C143.94 50.06 144.593 49.5467 145.106 48.94C145.666 48.2867 146.04 47.5867 146.226 46.84C146.46 46.0467 146.506 45.2533 146.366 44.46C146.273 43.62 145.97 42.85 145.456 42.15C144.943 41.45 144.36 40.8433 143.706 40.33C143.1 39.77 142.446 39.2567 141.746 38.79C140.673 38.09 139.553 37.46 138.386 36.9C137.266 36.34 136.17 35.71 135.096 35.01C134.07 34.3567 133.09 33.6567 132.156 32.91C131.27 32.1167 130.476 31.2533 129.776 30.32C129.31 29.6667 128.936 28.9667 128.656 28.22C128.376 27.4267 128.166 26.6333 128.026 25.84C127.746 24.2533 127.676 22.6667 127.816 21.08C128.003 19.4467 128.353 17.8833 128.866 16.39C129.193 15.55 129.543 14.7333 129.916 13.94C130.336 13.1 130.85 12.3533 131.456 11.7C131.97 11.0933 132.53 10.58 133.136 10.16C133.743 9.69333 134.373 9.22666 135.026 8.76C136.38 7.82666 137.873 7.15 139.506 6.73C141.186 6.31 142.843 6.03 144.476 5.89C145.596 5.79666 146.716 5.75 147.836 5.75C148.956 5.75 150.053 5.86666 151.126 6.1C151.733 6.24 152.316 6.40333 152.876 6.59C153.436 6.73 153.973 6.98666 154.486 7.36C154.86 7.68666 155.163 8.15333 155.396 8.76C155.583 9.36666 155.676 10.0433 155.676 10.79C155.723 11.49 155.63 12.19 155.396 12.89C155.21 13.59 154.93 14.2433 154.556 14.85C154.183 15.41 153.716 15.8533 153.156 16.18C152.783 16.4133 152.386 16.5767 151.966 16.67C151.546 16.7167 151.103 16.7633 150.636 16.81C149.563 16.9033 148.466 16.8567 147.346 16.67C146.273 16.4367 145.2 16.32 144.126 16.32C143.38 16.32 142.633 16.4367 141.886 16.67C141.186 16.8567 140.556 17.1833 139.996 17.65C139.343 18.1633 138.83 18.8167 138.456 19.61C138.13 20.4033 137.943 21.22 137.896 22.06C137.803 23.5533 138.153 24.93 138.946 26.19C139.74 27.4033 140.813 28.2667 142.166 28.78C143.426 29.2933 144.663 29.8767 145.876 30.53C147.09 31.1833 148.28 31.86 149.446 32.56C150.52 33.2133 151.57 33.9367 152.596 34.73C153.67 35.4767 154.58 36.3867 155.326 37.46C155.98 38.3933 156.47 39.4433 156.796 40.61C157.123 41.73 157.286 42.85 157.286 43.97C157.38 45.93 157.1 47.89 156.446 49.85C155.793 51.81 154.86 53.5833 153.646 55.17C152.573 56.57 151.243 57.8067 149.656 58.88C148.116 59.9067 146.506 60.7233 144.826 61.33C142.446 62.2167 140.09 62.7533 137.756 62.94Z" fill="#F3FFE7"/>
<path d="M74.64 148.08C73.98 148.44 73.17 148.71 72.21 148.89C71.25 149.07 70.26 149.16 69.24 149.16C68.22 149.16 67.23 149.04 66.27 148.8C65.31 148.62 64.53 148.32 63.93 147.9C63.09 147.3 62.49 146.37 62.13 145.11C61.83 143.79 61.65 142.38 61.59 140.88C61.53 139.32 61.56 137.79 61.68 136.29C61.8 134.79 61.89 133.53 61.95 132.51C61.95 132.03 61.98 131.19 62.04 129.99C62.16 128.73 62.25 127.32 62.31 125.76C62.37 124.14 62.43 122.46 62.49 120.72C62.55 118.92 62.61 117.24 62.67 115.68C62.73 114.06 62.76 112.65 62.76 111.45C62.82 110.25 62.85 109.38 62.85 108.84C62.85 105.72 62.73 102.63 62.49 99.57C62.31 96.45 62.16 93.33 62.04 90.21C61.98 89.49 62.01 88.74 62.13 87.96C62.25 87.18 62.49 86.46 62.85 85.8C63.33 85.02 63.99 84.42 64.83 84C65.73 83.52 66.6 83.22 67.44 83.1C69.06 82.92 70.65 83.16 72.21 83.82C73.83 84.48 75.24 85.32 76.44 86.34C78.36 87.96 80.07 89.79 81.57 91.83C83.07 93.87 84.57 95.91 86.07 97.95C86.43 98.43 86.73 98.94 86.97 99.48C87.27 99.96 87.57 100.47 87.87 101.01C89.79 104.79 91.53 108.63 93.09 112.53C94.65 116.43 96.33 120.3 98.13 124.14C98.37 123 98.49 121.68 98.49 120.18C98.55 118.44 98.49 116.7 98.31 114.96C98.19 113.22 98.04 111.48 97.86 109.74C97.62 107.22 97.35 104.76 97.05 102.36C96.81 99.9 96.57 97.41 96.33 94.89C96.27 94.17 96.15 93.15 95.97 91.83C95.85 90.45 95.76 89.01 95.7 87.51C95.64 86.01 95.61 84.6 95.61 83.28C95.67 81.96 95.85 81 96.15 80.4C96.27 80.1 96.42 79.86 96.6 79.68C96.84 79.5 97.05 79.32 97.23 79.14C97.77 78.72 98.4 78.45 99.12 78.33C99.9 78.15 100.65 78.09 101.37 78.15C102.15 78.15 102.9 78.3 103.62 78.6C104.34 78.84 104.97 79.17 105.51 79.59C105.99 79.95 106.38 80.4 106.68 80.94C106.98 81.42 107.25 81.93 107.49 82.47C107.97 83.79 108.36 85.32 108.66 87.06C109.08 89.16 109.32 91.29 109.38 93.45C109.5 95.55 109.56 97.68 109.56 99.84C109.68 105.3 109.83 110.7 110.01 116.04C110.19 121.32 110.13 126.69 109.83 132.15C109.71 133.77 109.56 135.39 109.38 137.01C109.26 138.63 109.02 140.22 108.66 141.78C108.54 142.32 108.39 142.89 108.21 143.49C108.03 144.03 107.79 144.54 107.49 145.02C106.89 146.04 106.11 146.85 105.15 147.45C104.25 148.05 103.26 148.41 102.18 148.53C101.1 148.65 100.02 148.56 98.94 148.26C97.86 147.96 96.87 147.42 95.97 146.64C94.89 145.68 94.02 144.54 93.36 143.22C92.76 141.84 92.19 140.46 91.65 139.08C90.27 135.66 88.83 132.3 87.33 129C85.89 125.64 84.39 122.28 82.83 118.92C82.11 117.48 81.36 116.04 80.58 114.6C79.86 113.16 79.08 111.75 78.24 110.37C77.94 109.89 77.61 109.41 77.25 108.93C76.95 108.45 76.59 107.97 76.17 107.49C76.05 108.03 75.99 108.96 75.99 110.28C75.99 111.54 75.99 112.92 75.99 114.42C75.99 115.92 75.99 117.33 75.99 118.65C76.05 119.91 76.08 120.81 76.08 121.35C76.14 122.43 76.26 124.14 76.44 126.48C76.68 128.82 76.89 131.28 77.07 133.86C77.25 136.38 77.31 138.78 77.25 141.06C77.25 143.34 77.01 144.99 76.53 146.01C76.11 146.91 75.48 147.6 74.64 148.08ZM142.914 149.88C141.414 150.24 139.884 150.39 138.324 150.33C136.764 150.33 135.204 150.27 133.644 150.15C132.264 150.03 130.914 149.85 129.594 149.61C128.274 149.37 126.984 148.98 125.724 148.44C123.924 147.72 122.544 146.43 121.584 144.57C121.104 143.73 120.744 142.83 120.504 141.87C120.264 140.91 120.084 139.92 119.964 138.9C119.664 136.56 119.514 134.22 119.514 131.88C119.514 129.54 119.514 127.17 119.514 124.77C119.574 120.27 119.664 115.83 119.784 111.45C119.904 107.01 120.114 102.54 120.414 98.04C120.534 96.18 120.624 94.32 120.684 92.46C120.804 90.6 120.924 88.71 121.044 86.79C121.104 85.95 121.164 85.17 121.224 84.45C121.344 83.67 121.524 82.89 121.764 82.11C122.064 80.85 122.604 79.83 123.384 79.05C123.744 78.69 124.164 78.42 124.644 78.24C125.184 78 125.694 77.82 126.174 77.7C126.894 77.52 128.154 77.34 129.954 77.16C131.814 76.98 133.764 76.8 135.804 76.62C137.904 76.44 139.854 76.32 141.654 76.26C143.514 76.14 144.804 76.08 145.524 76.08C146.004 76.14 146.424 76.2 146.784 76.26C147.204 76.26 147.624 76.32 148.044 76.44C148.764 76.74 149.274 77.16 149.574 77.7C149.934 78.24 150.174 78.9 150.294 79.68C150.414 80.46 150.414 81.27 150.294 82.11C150.234 82.95 150.084 83.76 149.844 84.54C149.604 85.32 149.304 85.98 148.944 86.52C148.524 87.18 147.924 87.72 147.144 88.14C146.424 88.56 145.674 88.83 144.894 88.95C143.574 89.25 142.254 89.4 140.934 89.4C139.614 89.4 138.294 89.46 136.974 89.58C136.614 89.64 136.254 89.7 135.894 89.76C135.594 89.82 135.324 89.97 135.084 90.21C134.724 90.57 134.424 91.11 134.184 91.83C133.944 92.49 133.764 93.24 133.644 94.08C133.584 94.86 133.524 95.64 133.464 96.42C133.464 97.2 133.494 97.86 133.554 98.4C133.614 99.24 133.854 100.17 134.274 101.19C134.694 102.15 135.354 102.66 136.254 102.72C137.274 102.78 138.294 102.69 139.314 102.45C140.334 102.15 141.354 102.03 142.374 102.09C143.154 102.09 143.844 102.27 144.444 102.63C145.044 102.99 145.554 103.47 145.974 104.07C146.454 104.91 146.724 105.81 146.784 106.77C146.904 107.73 146.904 108.69 146.784 109.65C146.664 110.37 146.484 111.12 146.244 111.9C146.064 112.68 145.704 113.31 145.164 113.79C144.684 114.27 144.084 114.6 143.364 114.78C142.644 114.9 141.954 114.96 141.294 114.96C140.094 114.96 138.924 114.84 137.784 114.6C136.704 114.3 135.594 114.06 134.454 113.88C134.334 113.88 134.184 113.88 134.004 113.88C133.884 113.82 133.824 113.85 133.824 113.97C133.644 114.51 133.524 115.47 133.464 116.85C133.404 118.23 133.344 119.7 133.284 121.26C133.224 122.76 133.194 124.23 133.194 125.67C133.194 127.05 133.194 128.01 133.194 128.55C133.254 129.39 133.314 130.23 133.374 131.07C133.434 131.85 133.584 132.66 133.824 133.5C134.004 134.4 134.364 135.15 134.904 135.75C135.204 136.11 135.684 136.41 136.344 136.65C137.364 137.07 138.444 137.25 139.584 137.19C140.724 137.07 141.864 137.04 143.004 137.1C143.544 137.16 144.084 137.22 144.624 137.28C145.164 137.28 145.674 137.43 146.154 137.73C146.694 138.09 147.084 138.57 147.324 139.17C147.624 139.77 147.834 140.4 147.954 141.06C148.134 142.02 148.194 143.01 148.134 144.03C148.074 144.99 147.804 145.89 147.324 146.73C146.904 147.51 146.274 148.17 145.434 148.71C144.654 149.25 143.814 149.64 142.914 149.88ZM207.263 147C205.343 147.3 203.543 147.09 201.863 146.37C200.423 145.89 199.103 145.11 197.903 144.03C196.703 142.95 195.683 141.78 194.843 140.52C193.883 139.08 193.043 137.55 192.323 135.93C191.663 134.31 191.093 132.66 190.613 130.98C189.893 128.58 189.323 126.15 188.903 123.69C188.483 121.23 188.123 118.77 187.823 116.31C187.223 120.27 186.503 124.26 185.663 128.28C184.823 132.24 183.623 136.08 182.063 139.8C181.583 140.88 181.013 141.93 180.353 142.95C179.753 143.97 179.003 144.84 178.103 145.56C176.663 146.64 175.103 147.12 173.423 147C171.383 147 169.493 146.37 167.753 145.11C166.853 144.45 166.043 143.7 165.323 142.86C164.663 141.96 164.063 141 163.523 139.98C162.863 138.66 162.293 137.31 161.813 135.93C161.333 134.49 160.913 133.05 160.553 131.61C160.373 131.01 160.103 129.78 159.743 127.92C159.383 126.06 158.993 124.11 158.573 122.07C158.153 119.97 157.763 118.02 157.403 116.22C157.103 114.36 156.923 113.1 156.863 112.44C156.563 110.52 156.353 108.57 156.233 106.59C156.173 104.61 156.083 102.63 155.963 100.65C155.963 100.17 155.933 99.27 155.873 97.95C155.873 96.57 155.873 95.13 155.873 93.63C155.873 92.13 155.873 90.72 155.873 89.4C155.873 88.02 155.903 87.09 155.963 86.61C156.023 85.77 156.173 84.93 156.413 84.09C156.713 83.25 157.133 82.53 157.673 81.93C158.213 81.39 158.873 80.94 159.653 80.58C160.433 80.22 161.243 80.01 162.083 79.95C162.983 79.83 163.853 79.86 164.693 80.04C165.533 80.16 166.283 80.4 166.943 80.76C167.903 81.3 168.623 82.17 169.103 83.37C169.403 84.27 169.553 85.2 169.553 86.16C169.553 87.12 169.523 88.08 169.463 89.04C169.283 93.54 169.223 98.04 169.283 102.54C169.343 107.04 169.793 111.48 170.633 115.86C170.753 116.7 170.903 117.51 171.083 118.29C171.263 119.07 171.503 119.85 171.803 120.63C172.043 121.29 172.313 121.95 172.613 122.61C172.913 123.27 173.303 123.84 173.783 124.32C173.903 124.44 174.053 124.59 174.233 124.77C174.413 124.95 174.593 124.98 174.773 124.86C175.133 124.68 175.433 124.23 175.673 123.51C175.913 122.79 176.093 122.19 176.213 121.71C176.633 119.67 176.993 117.6 177.293 115.5C177.593 113.4 177.893 111.3 178.193 109.2C178.553 107.1 178.943 105.03 179.363 102.99C179.843 100.89 180.443 98.85 181.163 96.87C181.523 95.79 182.003 94.74 182.603 93.72C183.203 92.64 183.953 91.77 184.853 91.11C185.453 90.63 186.113 90.27 186.833 90.03C187.613 89.79 188.363 89.73 189.083 89.85C190.223 90.03 191.243 90.6 192.143 91.56C193.043 92.46 193.823 93.57 194.483 94.89C195.203 96.15 195.803 97.5 196.283 98.94C196.763 100.38 197.153 101.64 197.453 102.72C198.113 105.42 198.623 108.15 198.983 110.91C199.403 113.67 199.943 116.4 200.603 119.1C200.723 119.64 200.903 120.39 201.143 121.35C201.443 122.25 201.773 123.21 202.133 124.23C202.493 125.19 202.883 126.09 203.303 126.93C203.723 127.77 204.173 128.37 204.653 128.73C205.493 129.27 206.213 129.12 206.813 128.28C207.413 127.44 207.863 126.54 208.163 125.58C208.763 123.36 209.123 121.11 209.243 118.83C209.423 116.49 209.543 114.18 209.603 111.9C209.603 111.36 209.603 110.46 209.603 109.2C209.603 107.94 209.603 106.5 209.603 104.88C209.603 103.26 209.603 101.55 209.603 99.75C209.603 97.89 209.603 96.15 209.603 94.53C209.603 92.91 209.603 91.47 209.603 90.21C209.663 88.95 209.723 88.05 209.783 87.51C209.903 86.85 210.023 86.19 210.143 85.53C210.263 84.87 210.473 84.21 210.773 83.55C211.373 82.41 212.273 81.6 213.473 81.12C214.133 80.88 214.883 80.7 215.723 80.58C216.623 80.4 217.493 80.34 218.333 80.4C219.173 80.46 219.953 80.64 220.673 80.94C221.453 81.18 222.053 81.6 222.473 82.2C223.013 82.86 223.343 83.64 223.463 84.54C223.643 85.38 223.793 86.22 223.913 87.06C224.033 88.5 224.063 89.94 224.003 91.38C224.003 92.76 224.003 94.17 224.003 95.61C223.883 101.49 223.523 107.34 222.923 113.16C222.383 118.98 221.333 124.71 219.773 130.35C219.113 132.63 218.303 134.88 217.343 137.1C216.383 139.32 215.123 141.33 213.563 143.13C211.943 145.11 209.843 146.4 207.263 147ZM253.156 146.91C252.676 147.45 252.046 147.9 251.266 148.26C250.486 148.62 249.616 148.89 248.656 149.07C247.756 149.25 246.826 149.34 245.866 149.34C244.966 149.34 244.156 149.25 243.436 149.07C241.456 148.59 240.076 147.42 239.296 145.56C238.816 144.42 238.546 143.28 238.486 142.14C238.486 140.94 238.486 139.74 238.486 138.54C238.486 137.88 238.576 136.62 238.756 134.76C238.936 132.84 239.146 130.8 239.386 128.64C239.626 126.48 239.836 124.47 240.016 122.61C240.256 120.75 240.406 119.49 240.466 118.83C240.526 118.29 240.586 117.39 240.646 116.13C240.766 114.87 240.886 113.46 241.006 111.9C241.186 110.28 241.336 108.57 241.456 106.77C241.636 104.97 241.786 103.29 241.906 101.73C242.026 100.11 242.116 98.67 242.176 97.41C242.236 96.15 242.266 95.25 242.266 94.71C241.786 94.77 241.066 94.86 240.106 94.98C239.146 95.04 238.126 95.1 237.046 95.16C235.966 95.22 234.946 95.25 233.986 95.25C233.026 95.25 232.336 95.16 231.916 94.98C231.256 94.68 230.656 94.23 230.116 93.63C229.636 92.97 229.246 92.25 228.946 91.47C228.646 90.63 228.436 89.79 228.316 88.95C228.196 88.05 228.196 87.24 228.316 86.52C228.436 85.86 228.586 85.23 228.766 84.63C228.946 83.97 229.276 83.4 229.756 82.92C230.296 82.26 231.046 81.84 232.006 81.66C232.966 81.48 233.866 81.33 234.706 81.21C236.866 80.91 239.026 80.82 241.186 80.94C243.346 81 245.506 81.06 247.666 81.12C249.886 81.24 252.076 81.27 254.236 81.21C256.456 81.15 258.646 81.27 260.806 81.57C261.706 81.69 262.576 81.9 263.416 82.2C264.316 82.44 265.186 82.8 266.026 83.28C266.626 83.58 267.166 83.97 267.646 84.45C268.126 84.87 268.486 85.41 268.726 86.07C269.086 86.91 269.266 87.84 269.266 88.86C269.326 89.88 269.086 90.78 268.546 91.56C268.066 92.28 267.226 92.82 266.026 93.18C264.886 93.48 263.626 93.66 262.246 93.72C260.926 93.78 259.606 93.78 258.286 93.72C256.966 93.6 255.856 93.54 254.956 93.54C255.136 97.98 255.226 102.39 255.226 106.77C255.286 111.15 255.286 115.56 255.226 120C255.226 123.24 255.196 126.48 255.136 129.72C255.136 132.96 255.076 136.2 254.956 139.44C254.896 140.7 254.776 142.02 254.596 143.4C254.416 144.72 253.936 145.89 253.156 146.91ZM285.45 149.7C284.73 150 283.92 150.15 283.02 150.15C282.12 150.21 281.19 150.15 280.23 149.97C279.33 149.79 278.46 149.49 277.62 149.07C276.84 148.65 276.21 148.14 275.73 147.54C275.01 146.7 274.56 145.68 274.38 144.48C274.2 143.28 274.11 142.11 274.11 140.97C274.11 137.37 274.26 133.8 274.56 130.26C274.86 126.72 275.1 123.15 275.28 119.55C275.46 116.01 275.55 112.5 275.55 109.02C275.55 105.48 275.55 101.94 275.55 98.4C275.55 98.22 275.52 97.83 275.46 97.23C275.4 96.57 275.34 95.91 275.28 95.25C275.22 94.53 275.13 93.87 275.01 93.27C274.95 92.67 274.92 92.25 274.92 92.01C274.86 91.29 274.8 90.36 274.74 89.22C274.68 88.02 274.68 86.82 274.74 85.62C274.8 84.42 274.95 83.31 275.19 82.29C275.43 81.27 275.85 80.52 276.45 80.04C276.87 79.68 277.35 79.44 277.89 79.32C278.43 79.2 278.94 79.14 279.42 79.14C280.14 79.14 281.4 79.2 283.2 79.32C285 79.38 286.92 79.5 288.96 79.68C291 79.8 292.92 79.95 294.72 80.13C296.58 80.31 297.84 80.46 298.5 80.58C300.18 80.88 301.83 81.27 303.45 81.75C305.13 82.23 306.66 82.95 308.04 83.91C310.44 85.59 312.27 87.75 313.53 90.39C314.85 92.97 315.45 95.7 315.33 98.58C315.21 100.68 314.76 102.75 313.98 104.79C313.2 106.83 312.18 108.72 310.92 110.46C310.26 111.36 309.54 112.2 308.76 112.98C307.98 113.76 307.17 114.48 306.33 115.14C307.23 115.62 308.1 116.13 308.94 116.67C309.78 117.21 310.53 117.9 311.19 118.74C312.15 119.94 312.9 121.26 313.44 122.7C314.04 124.08 314.58 125.49 315.06 126.93C316.02 130.41 316.65 133.98 316.95 137.64C317.07 138.66 317.1 139.71 317.04 140.79C316.98 141.87 316.8 142.92 316.5 143.94C316.2 145.02 315.66 145.92 314.88 146.64C313.98 147.42 312.9 147.99 311.64 148.35C310.44 148.71 309.24 148.83 308.04 148.71C307.38 148.59 306.69 148.38 305.97 148.08C305.31 147.78 304.77 147.36 304.35 146.82C303.81 146.1 303.36 145.32 303 144.48C302.7 143.58 302.46 142.68 302.28 141.78C301.86 139.92 301.56 138.06 301.38 136.2C301.2 134.34 300.87 132.48 300.39 130.62C299.91 128.88 299.28 127.17 298.5 125.49C297.72 123.81 296.73 122.28 295.53 120.9C295.35 120.66 294.96 120.24 294.36 119.64C293.76 119.04 293.31 118.68 293.01 118.56C292.29 118.26 291.54 118.35 290.76 118.83C290.04 119.31 289.5 119.88 289.14 120.54C289.08 120.66 288.96 120.87 288.78 121.17C288.66 121.41 288.6 121.59 288.6 121.71C288.72 124.71 288.87 127.68 289.05 130.62C289.23 133.56 289.32 136.53 289.32 139.53C289.26 140.73 289.17 141.93 289.05 143.13C288.99 144.33 288.75 145.47 288.33 146.55C288.09 147.21 287.7 147.81 287.16 148.35C286.68 148.95 286.11 149.4 285.45 149.7ZM290.22 108.3C290.88 108.6 291.57 108.69 292.29 108.57C293.01 108.45 293.7 108.33 294.36 108.21H294.18H294.45C294.51 108.15 294.51 108.15 294.45 108.21C294.39 108.21 294.39 108.18 294.45 108.12C296.13 107.82 297.6 107.22 298.86 106.32C299.58 105.78 300.12 105.06 300.48 104.16C300.9 103.26 301.11 102.3 301.11 101.28C301.17 100.26 301.08 99.24 300.84 98.22C300.6 97.2 300.27 96.27 299.85 95.43C299.19 94.11 298.26 93.12 297.06 92.46C296.58 92.22 295.95 91.98 295.17 91.74C294.45 91.5 293.67 91.32 292.83 91.2C291.99 91.08 291.18 91.02 290.4 91.02C289.68 91.02 289.08 91.14 288.6 91.38C288.24 91.56 287.97 91.83 287.79 92.19C287.49 92.73 287.34 93.6 287.34 94.8C287.34 96 287.37 97.29 287.43 98.67C287.55 99.99 287.67 101.28 287.79 102.54C287.97 103.8 288.09 104.73 288.15 105.33C288.15 105.87 288.36 106.47 288.78 107.13C289.26 107.73 289.74 108.12 290.22 108.3ZM337.42 146.01C336.52 147.03 335.29 147.72 333.73 148.08C332.23 148.44 330.79 148.47 329.41 148.17C328.75 148.05 328.09 147.81 327.43 147.45C326.83 147.09 326.38 146.61 326.08 146.01C325.6 145.17 325.27 144.27 325.09 143.31C324.91 142.35 324.76 141.39 324.64 140.43C324.46 137.79 324.43 135.15 324.55 132.51C324.73 129.87 324.91 127.23 325.09 124.59C325.33 121.89 325.57 119.22 325.81 116.58C326.05 113.94 326.17 111.3 326.17 108.66C326.23 104.76 326.32 100.89 326.44 97.05C326.56 93.15 326.86 89.28 327.34 85.44C327.46 84.78 327.58 84.12 327.7 83.46C327.88 82.8 328.18 82.2 328.6 81.66C329.14 80.94 329.86 80.43 330.76 80.13C331.72 79.83 332.74 79.68 333.82 79.68C334.9 79.62 335.98 79.68 337.06 79.86C338.14 80.04 339.1 80.25 339.94 80.49C342.04 81.21 343.18 82.65 343.36 84.81C343.54 86.37 343.54 87.96 343.36 89.58C343.18 91.2 342.97 92.79 342.73 94.35C342.25 98.43 341.71 102.48 341.11 106.5C340.51 110.52 340.06 114.57 339.76 118.65C339.46 122.07 339.34 125.49 339.4 128.91C339.46 132.33 339.43 135.75 339.31 139.17C339.25 140.37 339.1 141.6 338.86 142.86C338.68 144.06 338.2 145.11 337.42 146.01Z" fill="#F3FFE7"/>
<path d="M0 180.5C0 169.178 9.17816 160 20.5 160H110.5C121.822 160 131 169.178 131 180.5V180.5C131 191.822 121.822 201 110.5 201H20.5C9.17816 201 0 191.822 0 180.5V180.5Z" fill="#F3FFE7"/>
<circle cx="166.5" cy="180.5" r="20.5" fill="#F3FFE7"/>
</svg>
