<svg width="220" height="73" viewBox="0 0 220 73" fill="none" xmlns="http://www.w3.org/2000/svg">
<path d="M1.83632 71.1661C-0.708555 69.3102 0.0654011 62.1516 0.275287 58.9302C0.419584 56.5043 1.04924 42.545 0.983654 40.119C0.983654 35.1876 0.563881 30.2429 0.340877 25.3114C0.275287 24.1713 0.406466 22.8854 0.983654 21.8116C1.69202 20.592 3.25305 19.8099 4.59107 19.6641C7.13595 19.3724 9.82511 20.592 11.6747 22.2358C14.6525 24.8076 16.9088 28.2411 19.2438 31.4625C19.8078 32.2446 20.2276 33.04 20.6605 33.8884C23.7038 39.8274 25.8945 46.1906 28.728 52.2754C28.9379 51.2679 29.0166 50.2074 29.0166 49.1336C29.0822 46.3497 28.8067 43.5525 28.5181 40.8349C28.1639 36.8977 27.6655 32.9605 27.3113 29.0365C27.1014 26.8226 26.2487 19.4519 27.167 17.5165C27.3769 17.0923 27.731 16.8006 28.0196 16.509C29.7118 15.2231 32.8995 15.5015 34.5261 16.8669C35.2345 17.4369 35.733 18.2986 36.0871 19.1603C36.5069 20.3004 36.7955 21.52 37.0054 22.8059C37.6482 26.0935 37.7138 29.527 37.7138 32.9605C37.8581 41.5375 38.3565 50.0615 37.9236 58.6386C37.7138 61.2104 37.5695 63.7822 37.0054 66.2877C36.7955 67.1493 36.5069 68.0773 36.0871 68.8595C34.2506 72.1471 29.8561 72.5846 27.0227 70.1453C25.3305 68.6473 24.4778 66.2877 23.6251 64.1401C21.4345 58.7049 19.1651 53.4155 16.6858 48.1128C15.5576 45.8194 14.4164 43.4597 13.0784 41.3121C12.5799 40.53 12.0814 39.7346 11.4517 39.0187C11.1631 40.6626 11.3074 48.3912 11.3861 50.035C11.5304 53.5348 13.2226 66.4202 11.7403 69.6283C11.4517 70.2779 10.8877 70.9142 10.258 71.2722C8.21161 72.4122 3.75153 72.4918 1.83632 71.1263V71.1661Z" fill="black"/>
<path d="M49.8343 66.4467C48.5618 66.0225 47.2894 65.3729 46.3711 64.2991C45.3086 63.0132 44.7445 61.2236 44.6002 59.5798C44.246 55.3642 45.243 34.5512 45.6628 30.4019C45.8071 29.3944 46.3055 25.8946 46.9352 25.1125C47.4993 24.3304 48.4962 23.8266 49.4145 23.6145C51.6839 22.9649 62.0864 23.1108 64.4214 23.1903C65.7594 23.1903 67.1105 23.3361 68.383 23.9062C69.3012 24.3304 70.1539 25.1258 70.5736 26.12C71.5706 28.4134 71.2164 32.3374 69.2356 33.9149C68.5928 34.3391 67.8189 34.5645 67.1105 34.6308C66.1267 34.6308 60.8795 33.7028 59.8957 33.6233C58.8987 33.4774 57.705 33.4112 56.7867 33.9149C55.8685 34.4187 55.3044 36.6325 55.2257 37.7063C55.0814 38.7801 55.4356 40.2118 56.3538 40.7156C57.1278 41.2193 60.4597 41.1398 61.378 41.1398C62.4406 41.1398 66.9006 41.1398 67.8845 41.4977C68.5273 41.7098 69.0913 42.2136 69.3668 42.8499C69.8653 43.8574 69.7866 46.4292 69.3012 47.3572C69.0126 47.9272 68.5273 48.3647 67.9501 48.643C66.8875 49.1468 65.7594 49.2131 64.6181 49.2926C62.1388 49.4384 59.594 49.2263 57.1147 48.7889C56.6162 48.7226 55.4225 48.4309 54.9896 48.7889C54.701 49.001 54.5698 49.9289 54.5698 50.2869C54.4255 51.997 54.6354 53.7866 54.924 55.51C54.9896 56.08 55.3438 57.6576 55.7767 58.0155C56.0653 58.2276 57.1934 58.3071 57.6132 58.3071C58.5314 58.3071 59.4497 58.095 60.3023 57.9492C61.7847 57.6576 66.5333 56.3717 67.9501 56.955C68.5928 57.2466 69.0782 58.0287 69.3668 58.7446C69.9309 60.0305 70.1408 63.1856 69.3668 64.3919C68.8027 65.2536 67.8058 65.8237 66.8219 66.102C63.9885 66.8842 61.0238 67.2421 58.1116 67.3217C55.3569 67.3879 52.5234 67.2554 49.8343 66.46V66.4467Z" fill="black"/>
<path d="M105.245 69.2439C104.471 68.886 103.828 68.1701 103.408 67.388C102.844 66.2479 102.555 64.962 102.28 63.7424C101.716 61.449 98.2397 47.1451 97.6756 44.865C96.9017 48.948 96.1146 53.0178 95.1963 57.1008C94.5536 59.8185 93.8452 62.5361 92.7958 65.1874C92.4416 66.1154 92.0218 67.1229 91.379 67.905C90.8805 68.475 90.2509 68.9125 89.6081 69.1909C87.1288 70.2647 81.7505 70.331 79.6254 68.6209C78.2087 67.4808 77.5003 65.479 77.0018 63.6894C76.2279 60.5476 75.9393 57.2467 75.8737 53.959C75.7294 44.5203 76.4377 34.9357 78.5628 25.7091C78.7071 24.927 79.1269 23.4157 79.8353 23.2036C81.1077 22.2756 85.2136 22.4215 86.7747 22.6999C87.9028 22.912 89.1752 23.6278 89.6737 24.7016C90.3165 26.067 90.1722 27.7771 89.8836 29.2752C88.8997 34.4983 87.9684 39.7214 87.3387 45.0108C86.7746 49.1601 86.3549 53.3757 86.3549 57.6046C88.1258 52.3815 90.2509 47.2379 92.4416 42.1606C94.0682 38.3692 96.6131 32.8677 99.7351 35.5853C100.443 36.2349 100.942 37.1629 101.362 38.0908C103.841 43.9503 106.674 49.7434 108.931 55.7619C109.639 48.9613 108.996 42.028 107.934 35.2406C107.58 32.9472 107.016 30.5876 106.871 28.2279C106.806 26.5841 106.937 24.5823 108.078 23.5085C109.141 22.501 110.767 22.3684 112.184 22.2226C113.391 22.0768 114.873 22.0105 115.791 22.7927C116.434 23.3627 116.775 24.2907 116.998 25.0861C117.917 29.2354 119.976 50.91 120.186 55.1256C120.396 58.347 120.396 61.7009 119.412 64.7102C118.992 66.0623 118.074 67.4278 116.788 68.1436C114.742 69.2837 112.328 69.9996 109.928 70.1454C108.367 70.2117 106.674 69.9996 105.258 69.2837L105.245 69.2439Z" fill="black"/>
<path d="M137.882 70.8082C136.899 70.5165 135.902 69.8802 135.259 68.9522C134.695 68.0243 134.55 66.8842 134.485 65.8104C134.419 64.1003 135.049 54.5025 135.128 52.7924C135.272 48.7889 135.338 44.7058 135.193 40.636C135.128 36.7783 134.695 32.9074 134.419 29.0497C132.084 29.116 129.749 29.3414 127.559 28.9834C126.496 28.7713 125.434 28.4134 124.66 27.6975C122.967 26.12 123.243 23.4819 125.079 22.1165C125.722 21.6923 126.562 21.4006 127.414 21.2548C129.395 20.9632 131.455 21.109 133.501 21.109C136.61 21.1753 148.219 20.3931 150.987 21.7586C153.532 23.0445 153.965 27.1938 151.696 28.7713C149.649 30.2031 146.816 30.2693 144.336 29.8451C144.625 31.5552 144.835 33.2786 144.979 34.9887C145.045 35.1345 144.914 35.3466 144.979 35.4925C145.045 35.6383 145.045 35.7841 145.123 35.9167C145.543 41.2856 145.688 46.575 146.042 51.9439C146.252 54.8074 147.668 65.3199 146.54 67.9712C146.252 68.6208 145.832 69.2571 145.268 69.7609C144.284 70.4767 143.077 70.8347 141.87 71.0468C140.598 71.2589 139.181 71.1131 137.909 70.8347L137.882 70.8082Z" fill="#235A2F"/>
<path d="M158.845 68.528C157.638 67.388 157.638 65.3067 157.717 63.7424C158.005 53.3757 157.572 42.9958 157.428 32.6291V32.4832C157.074 30.3357 156.72 28.1881 156.93 25.9742C157.074 24.6883 157.704 23.5483 158.845 22.7529C160.406 21.6791 162.308 21.109 164.158 20.7511C168.408 19.8231 173.288 19.6773 177.249 21.5333C179.873 22.7529 182.562 24.3967 184.189 26.8227C185.317 28.5328 185.881 30.7599 185.881 32.8279C185.946 35.6118 185.107 38.5548 183.756 40.9807C182.982 42.4125 181.919 43.7646 180.647 44.7059C179.938 45.2096 179.23 45.6338 178.6 46.2039C178.745 46.3497 179.728 47.4235 179.873 47.5693C181.788 50.0748 183.205 52.9382 184.333 55.868C185.33 58.5193 187.376 64.7366 185.75 67.0963C185.461 67.5205 185.041 67.8785 184.621 68.1038C182.851 69.0981 179.453 69.5356 177.971 68.1038C177.328 67.4543 176.908 66.5263 176.698 65.5983C175.701 61.5948 175.137 57.4455 173.72 53.5083C172.868 51.1486 171.53 48.073 169.195 48.8552C168.421 49.0673 167.988 51.0028 167.778 51.7849C168.067 56.1463 168.421 60.5873 168.421 64.9488C168.421 66.1684 168.486 67.5205 167.778 68.4485C167.004 69.3765 165.587 69.5886 164.381 69.7344C162.544 69.8802 160.209 69.8007 158.858 68.5148L158.845 68.528ZM173.209 36.9772C175.688 35.3997 176.318 31.8337 174.206 29.7524C173.432 28.9702 172.081 28.7449 170.874 28.6786C170.021 28.6786 168.04 28.7449 167.476 29.4607C167.188 29.9645 167.122 30.5345 167.122 31.1045C167.057 33.3979 167.476 35.6781 167.765 37.9715C169.601 38.1173 171.661 37.9715 173.209 36.964V36.9772Z" fill="#235A2F"/>
<path d="M191.967 65.0946C191.259 64.2329 191.049 63.0266 190.97 61.9528C190.904 59.8847 191.18 57.8697 191.324 55.868C191.468 54.1579 192.177 43.99 192.242 42.2799C192.387 39.5623 192.531 36.8447 192.308 34.1933C192.164 32.6953 192.098 31.2636 192.308 29.8319C192.374 28.9702 192.597 28.0423 193.016 27.2601C193.79 26.1201 195.351 25.6163 196.768 25.4705C198.329 25.3247 200.1 25.3247 201.438 26.1863C202.212 26.6901 202.789 27.6181 203.065 28.4797C203.484 29.7656 203.563 31.1973 203.563 32.5628C203.497 40.2119 201.438 47.7947 201.517 55.457C201.517 57.4588 201.805 59.3942 201.871 61.396C201.871 62.4035 201.805 63.464 201.372 64.3257C201.018 65.0416 200.375 65.6779 199.68 66.0358C197.411 67.2554 193.659 67.0433 191.967 65.1078V65.0946Z" fill="#235A2F"/>
<path d="M197.109 18.7494C195.81 17.3177 198.499 7.90545 182.732 1.47598C180.134 1.95321 177.222 15.1966 192.544 19.2531C197.122 21.573 196.4 25.4307 196.4 27.565H199.352C199.352 27.565 198.145 20.7644 203.537 18.2721C207.196 16.5753 217.31 16.0318 220 0.760117C214.884 -2.23588 196.702 3.59704 197.122 18.7494H197.109ZM193.396 16.1643C193.082 16.3764 192.662 16.3102 192.439 15.992C190.943 13.7914 186.798 8.72736 184.962 6.88469C184.686 6.61955 184.686 6.16883 184.962 5.90369C185.224 5.62531 185.67 5.62531 185.932 5.90369C187.874 7.87893 191.98 12.8767 193.567 15.1966C193.777 15.5148 193.711 15.939 193.396 16.1643ZM212.614 4.89619C207.603 8.1043 203.497 13.4202 201.661 16.3234C201.451 16.6416 201.031 16.7344 200.716 16.5355C200.401 16.3234 200.31 15.8992 200.519 15.581C202.448 12.5718 206.606 7.13656 211.893 3.74286C212.207 3.53075 212.64 3.63681 212.837 3.95497C213.034 4.27313 212.942 4.7106 212.627 4.90945L212.614 4.89619Z" fill="#235B2F"/>
</svg>
