<svg width="1920" height="654" viewBox="0 0 1920 654" fill="none" xmlns="http://www.w3.org/2000/svg">
<path fill-rule="evenodd" clip-rule="evenodd" d="M2 80.4246L48.3517 100.531C93.105 120.637 184.21 160.849 275.315 134.041C368.018 107.233 459.123 13.4041 550.228 13.4041C641.333 13.4041 732.438 107.233 823.543 113.935C914.648 120.637 1007.35 40.2123 1098.46 20.1062C1189.56 0 1280.67 40.2123 1371.77 67.0205C1462.88 93.8288 1553.98 107.233 1646.69 93.8288C1737.79 80.4246 1828.9 40.2123 1873.65 20.1062L1920 0V321.699H1873.65C1828.9 321.699 1737.79 321.699 1646.69 321.699C1553.98 321.699 1462.88 321.699 1371.77 321.699C1280.67 321.699 1189.56 321.699 1098.46 321.699C1007.35 321.699 914.648 321.699 823.543 321.699C732.438 321.699 641.333 321.699 550.228 321.699C459.123 321.699 368.018 321.699 275.315 321.699C184.21 321.699 93.105 321.699 48.3517 321.699H2V80.4246Z" fill="#F3FFE7"/>
<rect y="320" width="1920" height="334" fill="#F3FFE7"/>
</svg>
