<svg width="48" height="48" viewBox="0 0 48 48" fill="none" xmlns="http://www.w3.org/2000/svg">
<path d="M18.0531 46.7789C17.5491 46.1597 17.3998 45.2927 17.3438 44.5211C17.2971 43.0349 17.4931 41.5869 17.5958 40.1484C17.6985 38.9194 18.2025 31.6125 18.2492 30.3836C18.3518 28.4306 18.4545 26.4777 18.2958 24.5723C18.1932 23.4958 18.1465 22.467 18.2958 21.4381C18.3425 20.8189 18.5012 20.152 18.7999 19.5899C19.3506 18.7706 20.4614 18.4086 21.4694 18.3038C22.5802 18.199 23.8403 18.199 24.7924 18.8183C25.3431 19.1803 25.7538 19.8471 25.9498 20.4664C26.2485 21.3905 26.3045 22.4193 26.3045 23.4006C26.2578 28.8974 24.7924 34.3467 24.8484 39.853C24.8484 41.2916 25.0538 42.6824 25.1004 44.121C25.1004 44.845 25.0538 45.6071 24.7457 46.2263C24.4937 46.7408 24.0363 47.1981 23.5416 47.4553C21.9268 48.3317 19.2572 48.1793 18.0531 46.7884V46.7789Z" fill="#235A2F"/>
<path d="M21.7119 13.4739C20.7878 12.445 22.7013 5.68109 11.4817 1.06068C9.63352 1.40364 7.56134 10.9207 18.4636 13.8359C21.7212 15.503 21.2079 18.2753 21.2079 19.8091H23.3081C23.3081 19.8091 22.4493 14.9219 26.2856 13.1309C28.8899 11.9115 36.0865 11.5209 38 0.546242C34.3597 -1.60677 21.4226 2.58494 21.7212 13.4739H21.7119ZM19.0703 11.6162C18.8463 11.7686 18.5476 11.721 18.389 11.4923C17.3249 9.9109 14.3753 6.27174 13.0685 4.94754C12.8725 4.75701 12.8725 4.4331 13.0685 4.24257C13.2552 4.04251 13.5725 4.04251 13.7592 4.24257C15.1407 5.66203 18.0623 9.25357 19.1917 10.9207C19.341 11.1494 19.2944 11.4542 19.0703 11.6162ZM32.7449 3.51855C29.1792 5.82399 26.2576 9.64416 24.9509 11.7305C24.8015 11.9591 24.5028 12.0258 24.2788 11.8829C24.0548 11.7305 23.9894 11.4256 24.1388 11.197C25.5109 9.03445 28.4698 5.12854 32.2315 2.68973C32.4555 2.5373 32.7635 2.61352 32.9035 2.84216C33.0436 3.07079 32.9782 3.38517 32.7542 3.52807L32.7449 3.51855Z" fill="#235B2F"/>
</svg>
