<svg width="31" height="53" viewBox="0 0 31 53" fill="none" xmlns="http://www.w3.org/2000/svg">
<path d="M8.81524 50.7019C8.2635 50.0307 8.10003 49.0911 8.03872 48.2547C7.98764 46.644 8.20221 45.0745 8.3146 43.5153C8.42699 42.1833 8.97873 34.2636 9.02981 32.9316C9.14221 30.8149 9.25461 28.6982 9.08091 26.6331C8.96852 25.4663 8.91743 24.3511 9.08091 23.236C9.132 22.5648 9.30569 21.842 9.63265 21.2328C10.2355 20.3448 11.4513 19.9524 12.5548 19.8388C13.7707 19.7253 15.1501 19.7253 16.1923 20.3964C16.7951 20.7888 17.2447 21.5116 17.4592 22.1827C17.7862 23.1843 17.8475 24.2995 17.8475 25.363C17.7964 31.3209 16.1923 37.2271 16.2536 43.1952C16.2536 44.7544 16.4783 46.2619 16.5294 47.8211C16.5294 48.6058 16.4783 49.4319 16.1412 50.103C15.8653 50.6606 15.3647 51.1562 14.8231 51.435C13.0555 52.385 10.1333 52.2198 8.81524 50.7122V50.7019Z" fill="#235A2F"/>
<path d="M12.8202 14.6038C11.8087 13.4887 13.9033 6.15752 1.6219 1.14963C-0.401157 1.52135 -2.66944 11.8366 9.26457 14.9962C12.8305 16.8032 12.2685 19.8079 12.2685 21.4703H14.5674C14.5674 21.4703 13.6274 16.1733 17.8268 14.2321C20.6775 12.9104 28.5552 12.4871 30.6497 0.592052C26.6649 -1.74152 12.5035 2.80172 12.8305 14.6038H12.8202ZM9.9287 12.5903C9.68348 12.7555 9.35653 12.7039 9.18283 12.4561C8.01804 10.7421 4.78932 6.7977 3.35887 5.36245C3.14431 5.15594 3.14431 4.80487 3.35887 4.59836C3.56322 4.38153 3.91062 4.38153 4.11497 4.59836C5.62716 6.13687 8.82521 10.0296 10.0615 11.8366C10.225 12.0844 10.1739 12.4148 9.9287 12.5903ZM24.8973 3.81362C20.9942 6.3124 17.7962 10.4529 16.3657 12.7142C16.2022 12.9621 15.8753 13.0343 15.63 12.8794C15.3848 12.7142 15.3133 12.3838 15.4768 12.136C16.9788 9.79211 20.2177 5.55864 24.3353 2.9153C24.5806 2.75009 24.9177 2.83269 25.071 3.08051C25.2243 3.32832 25.1527 3.66906 24.9075 3.82395L24.8973 3.81362Z" fill="#235B2F"/>
</svg>
