<svg width="303" height="99" viewBox="0 0 303 99" fill="none" xmlns="http://www.w3.org/2000/svg">
<path d="M2.52911 96.9499C-0.975873 94.4215 0.0900751 84.6694 0.379146 80.2809C0.577882 76.976 1.44509 57.9593 1.35476 54.6544C1.35476 47.9363 0.776618 41.2001 0.46948 34.4819C0.379146 32.9288 0.559815 31.177 1.35476 29.7142C2.33037 28.0527 4.48034 26.9872 6.32316 26.7886C9.82814 26.3912 13.5319 28.0527 16.0793 30.2921C20.1805 33.7957 23.288 38.4731 26.5039 42.8615C27.2808 43.9271 27.8589 45.0106 28.4551 46.1664C32.6467 54.2571 35.6638 62.9257 39.5663 71.215C39.8554 69.8425 39.9638 68.3977 39.9638 66.9349C40.0541 63.1424 39.6747 59.3318 39.2772 55.6296C38.7894 50.266 38.1029 44.9023 37.6151 39.5566C37.326 36.5407 36.1516 26.4996 37.4163 23.8629C37.7054 23.285 38.1932 22.8877 38.5907 22.4904C40.9213 20.7386 45.3116 21.1179 47.5519 22.978C48.5275 23.7545 49.214 24.9284 49.7018 26.1023C50.28 27.6554 50.6774 29.3169 50.9665 31.0687C51.8518 35.5474 51.9421 40.2249 51.9421 44.9023C52.1409 56.5868 52.8274 68.1991 52.2312 79.8836C51.9421 83.3872 51.7434 86.8907 50.9665 90.304C50.6774 91.4778 50.28 92.742 49.7018 93.8075C47.1725 98.2863 41.12 98.8822 37.2176 95.5593C34.887 93.5186 33.7126 90.304 32.5383 87.3783C29.5211 79.9739 26.3955 72.7682 22.9809 65.5443C21.4271 62.42 19.8553 59.2054 18.0125 56.2798C17.3259 55.2143 16.6394 54.1307 15.7722 53.1555C15.3747 55.3949 15.5734 65.9236 15.6818 68.163C15.8806 72.9307 18.2112 90.4846 16.1696 94.855C15.7722 95.7399 14.9953 96.6067 14.1281 97.0944C11.3096 98.6475 5.16688 98.7558 2.52911 96.8957V96.9499Z" fill="black"/>
<path d="M68.636 90.5208C66.8835 89.9429 65.131 89.058 63.8663 87.5951C62.4029 85.8434 61.626 83.4053 61.4273 81.1659C60.9395 75.423 62.3125 47.0695 62.8907 41.4169C63.0894 40.0444 63.776 35.2766 64.6432 34.2111C65.4201 33.1456 66.7931 32.4593 68.0578 32.1704C71.1834 31.2855 85.5105 31.4841 88.7264 31.5925C90.5692 31.5925 92.4301 31.7911 94.1826 32.5677C95.4473 33.1456 96.6216 34.2292 97.1998 35.5836C98.5728 38.708 98.085 44.0536 95.3569 46.2027C94.4716 46.7806 93.4057 47.0876 92.4301 47.1779C91.0751 47.1779 83.8483 45.9137 82.4933 45.8054C81.1202 45.6067 79.4761 45.5164 78.2114 46.2027C76.9467 46.8889 76.1699 49.9049 76.0615 51.3677C75.8627 52.8305 76.3505 54.7809 77.6152 55.4672C78.6812 56.1535 83.2702 56.0451 84.5349 56.0451C85.9983 56.0451 92.141 56.0451 93.496 56.5327C94.3813 56.8217 95.1582 57.5079 95.5376 58.3748C96.2242 59.7473 96.1158 63.2509 95.4473 64.515C95.0498 65.2916 94.3813 65.8876 93.5864 66.2668C92.123 66.9531 90.5692 67.0434 88.9974 67.1517C85.5827 67.3504 82.0778 67.0614 78.6631 66.4655C77.9766 66.3752 76.3325 65.9779 75.7363 66.4655C75.3388 66.7544 75.1581 68.0186 75.1581 68.5062C74.9594 70.8359 75.2485 73.2739 75.6459 75.6217C75.7363 76.3982 76.2241 78.5473 76.8203 79.0349C77.2178 79.3239 78.7715 79.4322 79.3496 79.4322C80.6143 79.4322 81.879 79.1433 83.0534 78.9446C85.0949 78.5473 91.6352 76.7955 93.5864 77.5901C94.4717 77.9875 95.1401 79.053 95.5376 80.0282C96.3145 81.78 96.6036 86.0781 95.5376 87.7216C94.7607 88.8954 93.3876 89.672 92.0326 90.0512C88.1302 91.1167 84.047 91.6044 80.0362 91.7127C76.2421 91.803 72.3397 91.6224 68.636 90.5388V90.5208Z" fill="black"/>
<path d="M144.951 94.3315C143.885 93.8439 142.999 92.8687 142.421 91.8032C141.644 90.25 141.247 88.4983 140.867 86.8368C140.091 83.7125 135.303 64.2262 134.526 61.12C133.46 66.6823 132.376 72.2266 131.111 77.789C130.226 81.4912 129.25 85.1934 127.805 88.8053C127.317 90.0695 126.739 91.442 125.854 92.5075C125.167 93.284 124.3 93.88 123.415 94.2593C120 95.7221 112.593 95.8124 109.666 93.4827C107.715 91.9296 106.739 89.2026 106.053 86.7646C104.987 82.4844 104.589 77.9876 104.499 73.5089C104.3 60.6505 105.276 47.5934 108.202 35.024C108.401 33.9584 108.979 31.8997 109.955 31.6107C111.707 30.3465 117.362 30.5452 119.512 30.9244C121.066 31.2134 122.819 32.1886 123.505 33.6514C124.39 35.5116 124.192 37.8412 123.794 39.882C122.439 46.9974 121.156 54.1129 120.289 61.3187C119.512 66.9713 118.934 72.7142 118.934 78.4752C121.373 71.3598 124.3 64.3527 127.317 57.4359C129.558 52.2708 133.063 44.7761 137.363 48.4783C138.338 49.3632 139.025 50.6274 139.603 51.8916C143.017 59.8739 146.92 67.7659 150.027 75.965C151.003 66.7004 150.118 57.2553 148.654 48.0088C148.167 44.8845 147.39 41.6699 147.191 38.4553C147.101 36.2159 147.281 33.4889 148.853 32.0261C150.316 30.6535 152.557 30.4729 154.508 30.2743C156.17 30.0756 158.212 29.9853 159.476 31.0509C160.362 31.8274 160.831 33.0916 161.139 34.1752C162.403 39.8278 165.24 69.3552 165.529 75.0981C165.818 79.4866 165.818 84.0556 164.463 88.1551C163.885 89.9972 162.62 91.8573 160.849 92.8326C158.031 94.3857 154.707 95.3609 151.4 95.5595C149.251 95.6498 146.92 95.3609 144.969 94.3857L144.951 94.3315Z" fill="black"/>
<path d="M189.901 96.4623C188.546 96.065 187.173 95.1981 186.288 93.934C185.511 92.6698 185.312 91.1167 185.222 89.6539C185.131 87.3242 185.999 74.2491 186.107 71.9194C186.306 66.4654 186.396 60.9031 186.197 55.3588C186.107 50.1035 185.511 44.8301 185.131 39.5747C181.915 39.665 178.7 39.972 175.682 39.4844C174.219 39.1955 172.756 38.7079 171.69 37.7327C169.359 35.5836 169.738 31.9897 172.268 30.1296C173.153 29.5517 174.309 29.1544 175.484 28.9557C178.212 28.5584 181.048 28.7571 183.867 28.7571C188.149 28.8474 204.138 27.7819 207.95 29.642C211.455 31.3938 212.051 37.0464 208.926 39.1955C206.107 41.1459 202.205 41.2362 198.79 40.6583C199.187 42.988 199.477 45.3357 199.675 47.6654C199.766 47.8641 199.585 48.153 199.675 48.3517C199.766 48.5503 199.766 48.749 199.874 48.9296C200.452 56.2437 200.651 63.4495 201.139 70.7636C201.428 74.6644 203.379 88.9856 201.825 92.5975C201.428 93.4825 200.85 94.3493 200.073 95.0356C198.718 96.0108 197.056 96.4984 195.393 96.7874C193.641 97.0763 191.69 96.8777 189.937 96.4984L189.901 96.4623Z" fill="#235A2F"/>
<path d="M218.772 93.3562C217.11 91.8031 217.11 88.9678 217.218 86.8368C217.616 72.7142 217.02 58.5736 216.821 44.451V44.2524C216.333 41.3267 215.845 38.4011 216.134 35.3851C216.333 33.6333 217.2 32.0802 218.772 30.9966C220.922 29.5338 223.542 28.7573 226.089 28.2697C231.943 27.0055 238.664 26.8068 244.12 29.3352C247.733 30.9966 251.437 33.236 253.677 36.5409C255.231 38.8706 256.008 41.9046 256.008 44.7219C256.098 48.5144 254.942 52.5236 253.081 55.8285C252.015 57.779 250.552 59.621 248.799 60.9033C247.824 61.5895 246.848 62.1674 245.981 62.944C246.18 63.1426 247.535 64.6055 247.733 64.8041C250.371 68.2174 252.322 72.1182 253.876 76.1094C255.249 79.7213 258.068 88.1912 255.827 91.4058C255.43 91.9837 254.852 92.4713 254.274 92.7783C251.835 94.1328 247.155 94.7288 245.114 92.7783C244.228 91.8934 243.65 90.6293 243.361 89.3651C241.988 83.9111 241.211 78.2585 239.26 72.8948C238.086 69.6802 236.243 65.4904 233.027 66.5559C231.961 66.8448 231.365 69.4815 231.076 70.5471C231.473 76.4886 231.961 82.5386 231.961 88.4802C231.961 90.1416 232.051 91.9837 231.076 93.2479C230.01 94.5121 228.058 94.801 226.396 94.9997C223.867 95.1983 220.651 95.09 218.79 93.3382L218.772 93.3562ZM238.555 50.3745C241.97 48.2255 242.837 43.3674 239.928 40.5321C238.863 39.4666 237.002 39.1596 235.339 39.0693C234.165 39.0693 231.437 39.1596 230.66 40.1348C230.263 40.821 230.172 41.5976 230.172 42.3742C230.082 45.4985 230.66 48.6047 231.058 51.729C233.587 51.9277 236.423 51.729 238.555 50.3565V50.3745Z" fill="#235A2F"/>
<path d="M264.391 88.6785C263.415 87.5047 263.126 85.8612 263.018 84.3984C262.927 81.5811 263.307 78.8361 263.506 76.1091C263.704 73.7794 264.68 59.9277 264.77 57.598C264.969 53.8958 265.168 50.1936 264.861 46.5817C264.662 44.541 264.572 42.5906 264.861 40.6401C264.951 39.4663 265.258 38.2021 265.836 37.1366C266.902 35.5835 269.052 34.8972 271.003 34.6985C273.153 34.4999 275.592 34.4999 277.435 35.6738C278.501 36.36 279.296 37.6242 279.676 38.7981C280.254 40.5498 280.362 42.5003 280.362 44.3604C280.272 54.7808 277.435 65.1108 277.544 75.5492C277.544 78.2762 277.941 80.9129 278.031 83.6399C278.031 85.0124 277.941 86.4572 277.345 87.6311C276.857 88.6063 275.972 89.4731 275.014 89.9607C271.889 91.6222 266.722 91.3333 264.391 88.6966V88.6785Z" fill="#235A2F"/>
<path d="M271.473 25.5423C269.685 23.5919 273.388 10.7696 251.672 2.01072C248.095 2.66087 244.084 20.7024 265.186 26.2286C271.491 29.389 270.498 34.6443 270.498 37.5519H274.563C274.563 37.5519 272.9 28.2874 280.326 24.8922C285.367 22.5805 299.296 21.8401 303 1.03551C295.954 -3.04595 270.913 4.90025 271.491 25.5423H271.473ZM266.36 22.0207C265.927 22.3096 265.349 22.2194 265.041 21.7859C262.982 18.788 257.273 11.8893 254.743 9.37902C254.364 9.01783 254.364 8.4038 254.743 8.04261C255.105 7.66336 255.719 7.66336 256.08 8.04261C258.754 10.7335 264.409 17.5419 266.595 20.7024C266.884 21.1358 266.794 21.7137 266.36 22.0207ZM292.828 6.67009C285.927 11.0405 280.272 18.2824 277.742 22.2374C277.453 22.6708 276.875 22.7973 276.442 22.5264C276.008 22.2374 275.882 21.6595 276.171 21.2261C278.826 17.1266 284.554 9.72215 291.835 5.09891C292.268 4.80995 292.864 4.95443 293.135 5.38786C293.406 5.82129 293.28 6.41725 292.846 6.68815L292.828 6.67009Z" fill="#235B2F"/>
</svg>
