<svg width="18" height="29" viewBox="0 0 18 29" fill="none" xmlns="http://www.w3.org/2000/svg">
<path d="M1.68557 28.1927C1.9114 28.4183 2.18008 28.5973 2.47611 28.7195C2.77213 28.8416 3.08965 28.9045 3.41034 28.9045C3.73104 28.9045 4.04855 28.8416 4.34458 28.7195C4.64061 28.5973 4.90929 28.4183 5.13512 28.1927L17.2814 16.1608C17.5091 15.9371 17.6898 15.671 17.8132 15.3777C17.9365 15.0845 18 14.77 18 14.4523C18 14.1346 17.9365 13.8201 17.8132 13.5269C17.6898 13.2336 17.5091 12.9675 17.2814 12.7438L5.13512 0.711856C4.90929 0.486308 4.64061 0.307284 4.34458 0.185115C4.04856 0.0629451 3.73104 4.83436e-05 3.41035 4.83156e-05C3.08966 4.82876e-05 2.77214 0.062945 2.47611 0.185114C2.18008 0.307284 1.9114 0.486308 1.68557 0.711855C1.45788 0.935559 1.27716 1.2017 1.15383 1.49494C1.0305 1.78819 0.966999 2.10271 0.966999 2.42038C0.966999 2.73805 1.0305 3.05258 1.15383 3.34582C1.27716 3.63906 1.45788 3.90521 1.68557 4.12891L12.1314 14.4523L1.68557 24.7757C1.45788 24.9994 1.27716 25.2655 1.15382 25.5588C1.03049 25.852 0.966997 26.1665 0.966997 26.4842C0.966997 26.8019 1.03049 27.1164 1.15382 27.4096C1.27716 27.7029 1.45788 27.969 1.68557 28.1927Z" fill="#235A2F"/>
</svg>
