<svg width="50" height="51" viewBox="0 0 50 51" fill="none" xmlns="http://www.w3.org/2000/svg">
<path d="M27.57 0.5C30.3824 0.507501 31.8098 0.522503 33.0423 0.557508L33.5272 0.575011C34.0872 0.595014 34.6397 0.620017 35.3071 0.650022C37.967 0.77504 39.7819 1.1951 41.3743 1.81269C43.0243 2.44778 44.4142 3.30791 45.8041 4.69561C47.0758 5.94513 48.0595 7.4572 48.6865 9.12626C49.3039 10.719 49.7239 12.5343 49.8489 15.1971C49.8789 15.8622 49.9039 16.4148 49.9239 16.9774L49.9389 17.4625C49.9764 18.6927 49.9914 20.1204 49.9964 22.9333L49.9989 24.7985V28.074C50.005 29.8978 49.9858 31.7216 49.9414 33.5448L49.9264 34.0299C49.9064 34.5925 49.8814 35.1451 49.8514 35.8102C49.7264 38.473 49.3014 40.2858 48.6865 41.881C48.0595 43.5501 47.0758 45.0622 45.8041 46.3117C44.5548 47.5836 43.0431 48.5675 41.3743 49.1946C39.7819 49.8122 37.967 50.2323 35.3071 50.3573L33.5272 50.4323L33.0423 50.4473C31.8098 50.4823 30.3824 50.4998 27.57 50.5048L25.7051 50.5073H22.4328C20.6085 50.5137 18.7843 50.4946 16.9606 50.4498L16.4756 50.4348C15.8821 50.4123 15.2888 50.3865 14.6957 50.3573C12.0358 50.2323 10.2209 49.8122 8.62599 49.1946C6.95815 48.5672 5.44725 47.5833 4.19871 46.3117C2.92614 45.0624 1.9416 43.5503 1.31386 41.881C0.696387 40.2883 0.276408 38.473 0.151414 35.8102L0.0764181 34.0299L0.063919 33.5448C0.0178364 31.7216 -0.00299809 29.8978 0.00142192 28.074V22.9333C-0.00549747 21.1095 0.0128369 19.2857 0.0564193 17.4625L0.0739184 16.9774C0.0939174 16.4148 0.118916 15.8622 0.148915 15.1971C0.273908 12.5343 0.693887 10.7215 1.31136 9.12626C1.94056 7.45651 2.92683 5.94439 4.20121 4.69561C5.44903 3.4243 6.95904 2.44047 8.62599 1.81269C10.2209 1.1951 12.0333 0.77504 14.6957 0.650022C15.3606 0.620017 15.9156 0.595014 16.4756 0.575011L16.9606 0.560009C18.7835 0.515584 20.6069 0.496413 22.4303 0.5025L27.57 0.5ZM25.0002 13.0018C21.6851 13.0018 18.5059 14.319 16.1618 16.6635C13.8177 19.0081 12.5008 22.188 12.5008 25.5037C12.5008 28.8193 13.8177 31.9992 16.1618 34.3438C18.5059 36.6883 21.6851 38.0055 25.0002 38.0055C28.3152 38.0055 31.4945 36.6883 33.8385 34.3438C36.1826 31.9992 37.4995 28.8193 37.4995 25.5037C37.4995 22.188 36.1826 19.0081 33.8385 16.6635C31.4945 14.319 28.3152 13.0018 25.0002 13.0018ZM25.0002 18.0026C25.985 18.0024 26.9603 18.1963 27.8702 18.5731C28.7802 18.9499 29.607 19.5023 30.3036 20.1987C31.0001 20.8951 31.5526 21.7219 31.9297 22.632C32.3067 23.542 32.5009 24.5173 32.501 25.5024C32.5012 26.4875 32.3074 27.4629 31.9306 28.373C31.5539 29.2832 31.0016 30.1102 30.3053 30.8068C29.609 31.5035 28.7824 32.0562 27.8725 32.4333C26.9627 32.8104 25.9875 33.0046 25.0027 33.0047C23.0136 33.0047 21.1061 32.2145 19.6996 30.8077C18.2932 29.401 17.503 27.4931 17.503 25.5037C17.503 23.5142 18.2932 21.6063 19.6996 20.1996C21.1061 18.7928 23.0136 18.0026 25.0027 18.0026M38.127 9.25128C37.2982 9.25128 36.5034 9.58057 35.9174 10.1667C35.3314 10.7528 35.0022 11.5478 35.0022 12.3767C35.0022 13.2057 35.3314 14.0006 35.9174 14.5868C36.5034 15.1729 37.2982 15.5022 38.127 15.5022C38.9558 15.5022 39.7506 15.1729 40.3366 14.5868C40.9226 14.0006 41.2518 13.2057 41.2518 12.3767C41.2518 11.5478 40.9226 10.7528 40.3366 10.1667C39.7506 9.58057 38.9558 9.25128 38.127 9.25128Z" fill="#235B2F"/>
</svg>
