<svg width="32" height="32" viewBox="0 0 32 32" fill="none" xmlns="http://www.w3.org/2000/svg">
<path d="M0.77826 0.847457C1.27723 0.35016 1.9536 0.0708326 2.6588 0.0708326C3.36401 0.0708326 4.04038 0.35016 4.53934 0.847457L15.9645 12.2486L27.3897 0.847457C27.715 0.497899 28.1287 0.24236 28.5873 0.107762C29.0459 -0.026836 29.5324 -0.0355086 29.9955 0.0826569C30.4586 0.200822 30.8812 0.441451 31.2188 0.779192C31.5564 1.11693 31.7964 1.53928 31.9136 2.00173C32.0318 2.46338 32.0233 2.94825 31.8891 3.40551C31.7549 3.86277 31.4999 4.27557 31.1508 4.60063L19.7256 16.0018L31.1508 27.4029C31.5011 27.7275 31.7571 28.1404 31.892 28.598C32.0269 29.0557 32.0356 29.5411 31.9172 30.0033C31.7988 30.4654 31.5576 30.8871 31.2192 31.224C30.8807 31.5609 30.4575 31.8004 29.9941 31.9174C29.5314 32.0353 29.0455 32.0269 28.5873 31.8929C28.1291 31.759 27.7154 31.5045 27.3897 31.1561L15.9645 19.755L4.53934 31.1561C4.03498 31.6258 3.36757 31.8816 2.67783 31.8697C1.98809 31.8578 1.32993 31.5791 0.842127 31.0924C0.354348 30.6056 0.075056 29.9488 0.0631412 29.2605C0.0512263 28.5722 0.30762 27.9062 0.77826 27.4029L12.2034 16.0018L0.77826 4.60063C0.279915 4.10272 0 3.42777 0 2.72404C0 2.02032 0.279915 1.34537 0.77826 0.847457Z" fill="#235A2F"/>
</svg>
