<svg width="55" height="55" viewBox="0 0 55 55" fill="none" xmlns="http://www.w3.org/2000/svg">
<path d="M27.5 0C22.061 0 16.7442 1.61285 12.2218 4.63458C7.69948 7.65632 4.17473 11.9512 2.09332 16.9762C0.0119153 22.0012 -0.532676 27.5305 0.528417 32.865C1.58951 38.1995 4.20863 43.0995 8.05457 46.9454C11.9005 50.7914 16.8005 53.4105 22.135 54.4716C27.4695 55.5327 32.9988 54.9881 38.0238 52.9067C43.0488 50.8253 47.3437 47.3005 50.3654 42.7782C53.3872 38.2558 55 32.939 55 27.5C54.9923 20.2089 52.0925 13.2186 46.9369 8.06307C41.7814 2.90748 34.7911 0.00769952 27.5 0ZM27.5 50.7692C22.8978 50.7692 18.3989 49.4045 14.5723 46.8476C10.7457 44.2908 7.76324 40.6566 6.00204 36.4047C4.24085 32.1528 3.78004 27.4742 4.67789 22.9604C5.57574 18.4466 7.79192 14.3004 11.0462 11.0462C14.3004 7.79191 18.4466 5.57573 22.9604 4.67788C27.4742 3.78003 32.1529 4.24084 36.4048 6.00203C40.6566 7.76323 44.2908 10.7457 46.8477 14.5723C49.4045 18.3989 50.7692 22.8978 50.7692 27.5C50.7622 33.6692 48.3084 39.5838 43.9461 43.9461C39.5838 48.3084 33.6692 50.7622 27.5 50.7692ZM44.4231 27.5C44.4231 28.061 44.2002 28.5991 43.8035 28.9958C43.4068 29.3925 42.8687 29.6154 42.3077 29.6154H27.5C26.939 29.6154 26.4009 29.3925 26.0042 28.9958C25.6075 28.5991 25.3846 28.061 25.3846 27.5V12.6923C25.3846 12.1313 25.6075 11.5932 26.0042 11.1965C26.4009 10.7998 26.939 10.5769 27.5 10.5769C28.061 10.5769 28.5991 10.7998 28.9958 11.1965C29.3925 11.5932 29.6154 12.1313 29.6154 12.6923V25.3846H42.3077C42.8687 25.3846 43.4068 25.6075 43.8035 26.0042C44.2002 26.4009 44.4231 26.939 44.4231 27.5Z" fill="#235B2F"/>
</svg>
