<svg width="244" height="75" viewBox="0 0 244 75" fill="none" xmlns="http://www.w3.org/2000/svg">
<path d="M2.03664 73.6119C-0.785852 71.7102 0.0725357 64.3751 0.305319 61.0743C0.465357 58.5885 1.16371 44.2851 1.09096 41.7993C1.09096 36.7462 0.625395 31.6796 0.378063 26.6265C0.305319 25.4583 0.450808 24.1407 1.09096 23.0404C1.8766 21.7907 3.60793 20.9893 5.09192 20.8399C7.91441 20.5411 10.8969 21.7908 12.9483 23.4751C16.251 26.1103 18.7534 29.6285 21.3431 32.9293C21.9687 33.7307 22.4342 34.5457 22.9144 35.415C26.2897 41.5005 28.7194 48.0206 31.862 54.2554C32.0947 53.2231 32.182 52.1364 32.182 51.0361C32.2548 48.1836 31.9493 45.3174 31.6292 42.5328C31.2364 38.4985 30.6835 34.4642 30.2907 30.4435C30.0579 28.175 29.1122 20.6226 30.1306 18.6394C30.3634 18.2047 30.7562 17.9059 31.0763 17.607C32.9531 16.2894 36.4885 16.5747 38.2926 17.9738C39.0782 18.5579 39.6311 19.4408 40.0239 20.3237C40.4895 21.4919 40.8096 22.7416 41.0423 24.0592C41.7552 27.4279 41.828 30.9461 41.828 34.4642C41.988 43.2527 42.5409 51.987 42.0608 60.7755C41.828 63.4107 41.6679 66.0459 41.0423 68.6132C40.8096 69.4961 40.4895 70.447 40.0239 71.2484C37.9871 74.6171 33.1132 75.0654 29.9706 72.566C28.0938 71.0311 27.1481 68.6132 26.2024 66.4127C23.7728 60.8434 21.2558 55.4236 18.506 49.9902C17.2548 47.6402 15.9891 45.2224 14.5051 43.0218C13.9522 42.2204 13.3994 41.4054 12.701 40.6719C12.3809 42.3562 12.541 50.2754 12.6283 51.9598C12.7883 55.5458 14.6651 68.749 13.0211 72.0362C12.701 72.7018 12.0754 73.3539 11.3771 73.7206C9.10743 74.8888 4.16079 74.9703 2.03664 73.5712V73.6119Z" fill="black"/>
<path d="M55.2712 68.7762C53.8599 68.3415 52.4487 67.6759 51.4303 66.5757C50.2518 65.2581 49.6262 63.4243 49.4662 61.7399C49.0733 57.4204 50.1791 36.0942 50.6446 31.8426C50.8047 30.8102 51.3575 27.2242 52.0559 26.4227C52.6815 25.6213 53.7872 25.1051 54.8056 24.8878C57.3226 24.2222 68.8599 24.3716 71.4496 24.4531C72.9336 24.4531 74.4321 24.6025 75.8434 25.1866C76.8618 25.6213 77.8075 26.4363 78.273 27.4551C79.3788 29.805 78.9859 33.8258 76.7891 35.4422C76.0762 35.8769 75.2178 36.1078 74.4321 36.1757C73.341 36.1757 67.5214 35.2249 66.4302 35.1434C65.3245 34.9939 64.0005 34.926 62.9821 35.4422C61.9637 35.9584 61.3381 38.2268 61.2508 39.3271C61.0908 40.4274 61.4836 41.8944 62.502 42.4106C63.3604 42.9267 67.0558 42.8452 68.0742 42.8452C69.2527 42.8452 74.1993 42.8452 75.2905 43.212C76.0034 43.4293 76.629 43.9455 76.9345 44.5975C77.4874 45.6299 77.4001 48.2651 76.8618 49.2159C76.5417 49.8 76.0034 50.2483 75.3633 50.5335C74.1848 51.0497 72.9336 51.1176 71.6678 51.1991C68.9181 51.3485 66.0956 51.1312 63.3458 50.6829C62.793 50.615 61.469 50.3162 60.9889 50.6829C60.6688 50.9003 60.5233 51.8511 60.5233 52.2179C60.3633 53.9701 60.5961 55.8039 60.9162 57.5698C60.9889 58.1539 61.3817 59.7703 61.8618 60.1371C62.1819 60.3544 63.4331 60.4359 63.8987 60.4359C64.9171 60.4359 65.9356 60.2186 66.8812 60.0692C68.5253 59.7703 73.792 58.4527 75.3633 59.0504C76.0762 59.3492 76.6145 60.1507 76.9345 60.8842C77.5602 62.2018 77.7929 65.4347 76.9345 66.6708C76.3089 67.5537 75.2032 68.1378 74.1121 68.423C70.9695 69.2244 67.6814 69.5912 64.4516 69.6727C61.3963 69.7406 58.2537 69.6048 55.2712 68.7898V68.7762Z" fill="black"/>
<path d="M116.726 71.6423C115.868 71.2755 115.155 70.542 114.689 69.7406C114.064 68.5724 113.744 67.2548 113.438 66.0051C112.812 63.6552 108.957 48.9985 108.331 46.6622C107.473 50.8459 106.6 55.0161 105.582 59.1998C104.869 61.9844 104.083 64.769 102.919 67.4857C102.526 68.4366 102.061 69.4689 101.348 70.2704C100.795 70.8544 100.097 71.3027 99.3837 71.588C96.634 72.6882 90.6689 72.7561 88.312 71.0039C86.7407 69.8357 85.9551 67.7846 85.4022 65.9508C84.5438 62.7315 84.2237 59.3492 84.151 55.9805C83.991 46.309 84.7766 36.4881 87.1335 27.034C87.2936 26.2325 87.7591 24.684 88.5448 24.4667C89.956 23.5158 94.5098 23.6652 96.2412 23.9505C97.4924 24.1678 98.9036 24.9013 99.4565 26.0016C100.169 27.4007 100.009 29.153 99.6893 30.6879C98.5981 36.0398 97.5651 41.3918 96.8668 46.8116C96.2412 51.0632 95.7756 55.3828 95.7756 59.716C97.7397 54.364 100.097 49.0936 102.526 43.8911C104.33 40.0062 107.153 34.3691 110.616 37.1537C111.401 37.8193 111.954 38.7701 112.42 39.721C115.169 45.7249 118.312 51.6609 120.814 57.8278C121.6 50.8595 120.887 43.7553 119.709 36.8005C119.316 34.4506 118.69 32.0327 118.53 29.6148C118.457 27.9305 118.603 25.8794 119.869 24.7791C121.047 23.7467 122.851 23.6109 124.422 23.4615C125.761 23.3121 127.405 23.2442 128.423 24.0456C129.136 24.6297 129.515 25.5805 129.762 26.3955C130.78 30.6472 133.065 52.8563 133.297 57.1758C133.53 60.4766 133.53 63.9133 132.439 66.9967C131.973 68.3822 130.955 69.7813 129.529 70.5149C127.259 71.683 124.582 72.4165 121.92 72.566C120.189 72.6339 118.312 72.4166 116.741 71.683L116.726 71.6423Z" fill="black"/>
<path d="M152.924 73.2452C151.833 72.9463 150.727 72.2943 150.014 71.3435C149.388 70.3926 149.228 69.2244 149.156 68.1242C149.083 66.3719 149.781 56.5374 149.869 54.7852C150.029 50.6829 150.101 46.4992 149.941 42.3291C149.869 38.3762 149.388 34.4099 149.083 30.457C146.493 30.525 143.903 30.7559 141.474 30.3891C140.295 30.1718 139.117 29.805 138.258 29.0715C136.382 27.4551 136.687 24.752 138.724 23.3529C139.437 22.9182 140.368 22.6193 141.314 22.4699C143.511 22.1711 145.795 22.3205 148.064 22.3205C151.513 22.3884 164.388 21.587 167.458 22.9861C170.281 24.3037 170.761 28.5553 168.244 30.1718C165.974 31.6388 162.832 31.7067 160.082 31.2721C160.402 33.0243 160.635 34.7902 160.795 36.5425C160.868 36.6919 160.722 36.9092 160.795 37.0586C160.868 37.2081 160.868 37.3575 160.955 37.4933C161.42 42.9946 161.58 48.4145 161.973 53.9158C162.206 56.8498 163.777 67.6216 162.526 70.3383C162.206 71.0039 161.74 71.6559 161.115 72.1721C160.024 72.9056 158.685 73.2723 157.347 73.4897C155.935 73.707 154.364 73.5576 152.953 73.2723L152.924 73.2452Z" fill="#235A2F"/>
<path d="M176.173 70.9088C174.834 69.7406 174.834 67.608 174.922 66.0051C175.242 55.3828 174.762 44.7469 174.602 34.1246V33.9752C174.209 31.7746 173.816 29.5741 174.049 27.3057C174.209 25.9881 174.907 24.8199 176.173 24.0049C177.904 22.9046 180.014 22.3205 182.065 21.9537C186.779 21.0029 192.191 20.8535 196.585 22.7552C199.495 24.0049 202.477 25.6892 204.281 28.175C205.533 29.9273 206.158 32.2093 206.158 34.3283C206.231 37.1809 205.3 40.1964 203.801 42.6822C202.943 44.1492 201.764 45.5348 200.353 46.4992C199.568 47.0154 198.782 47.45 198.084 48.0341C198.244 48.1835 199.335 49.2838 199.495 49.4332C201.619 52.0005 203.19 54.9346 204.441 57.9365C205.547 60.6532 207.817 67.0239 206.013 69.4418C205.693 69.8764 205.227 70.2432 204.762 70.4741C202.797 71.4929 199.029 71.9411 197.385 70.4741C196.672 69.8085 196.207 68.8577 195.974 67.9068C194.868 63.8046 194.243 59.553 192.671 55.5187C191.726 53.1008 190.242 49.9494 187.652 50.7508C186.794 50.9682 186.314 52.9514 186.081 53.7528C186.401 58.2218 186.794 62.7723 186.794 67.2412C186.794 68.4909 186.866 69.8764 186.081 70.8273C185.222 71.7781 183.651 71.9955 182.313 72.1449C180.276 72.2943 177.686 72.2128 176.187 70.8952L176.173 70.9088ZM192.104 38.58C194.854 36.9635 195.552 33.3096 193.21 31.177C192.351 30.3755 190.853 30.1446 189.514 30.0767C188.569 30.0767 186.372 30.1446 185.746 30.8781C185.426 31.3943 185.353 31.9784 185.353 32.5625C185.281 34.9124 185.746 37.2488 186.066 39.5988C188.103 39.7482 190.387 39.5988 192.104 38.5664V38.58Z" fill="#235A2F"/>
<path d="M212.909 67.3907C212.123 66.5078 211.89 65.2717 211.803 64.1714C211.73 62.0524 212.036 59.9877 212.196 57.9365C212.356 56.1843 213.142 45.7657 213.214 44.0134C213.374 41.2288 213.534 38.4442 213.287 35.7275C213.127 34.1925 213.054 32.7255 213.287 31.2585C213.36 30.3755 213.607 29.4247 214.073 28.6233C214.931 27.4551 216.662 26.9389 218.234 26.7895C219.965 26.6401 221.929 26.6401 223.413 27.523C224.272 28.0392 224.912 28.99 225.217 29.873C225.683 31.1906 225.77 32.6576 225.77 34.0567C225.697 41.8944 223.413 49.6642 223.5 57.5154C223.5 59.5666 223.821 61.5498 223.893 63.6009C223.893 64.6332 223.821 65.7199 223.34 66.6028C222.948 67.3363 222.235 67.9884 221.464 68.3551C218.947 69.6048 214.786 69.3875 212.909 67.4043V67.3907Z" fill="#235A2F"/>
<path d="M218.612 19.9026C217.172 18.4356 220.154 8.7913 202.666 2.20329C199.786 2.6923 196.556 16.2622 213.549 20.4188C218.626 22.7959 217.826 26.7487 217.826 28.9357H221.1C221.1 28.9357 219.761 21.9673 225.741 19.4136C229.8 17.6749 241.017 17.118 244 1.46978C238.326 -1.6001 218.161 4.37665 218.626 19.9026H218.612ZM214.495 17.2538C214.145 17.4712 213.68 17.4033 213.433 17.0773C211.774 14.8224 207.176 9.63348 205.14 7.74537C204.834 7.4737 204.834 7.01186 205.14 6.74019C205.431 6.45494 205.925 6.45494 206.216 6.74019C208.37 8.76414 212.923 13.8851 214.684 16.2622C214.917 16.5883 214.844 17.0229 214.495 17.2538ZM235.809 5.70784C230.251 8.99506 225.697 14.4421 223.66 17.4168C223.428 17.7429 222.962 17.8379 222.613 17.6342C222.264 17.4168 222.162 16.9822 222.395 16.6562C224.533 13.5727 229.145 8.00346 235.009 4.52607C235.358 4.30874 235.838 4.41741 236.056 4.74341C236.274 5.06942 236.173 5.51767 235.823 5.72143L235.809 5.70784Z" fill="#235B2F"/>
</svg>
