<svg width="1920" height="269" viewBox="0 0 1920 269" fill="none" xmlns="http://www.w3.org/2000/svg">
<path fill-rule="evenodd" clip-rule="evenodd" d="M1919.9 201.349L1873.5 184.57C1828.7 167.791 1737.51 134.232 1646.31 156.604C1553.52 178.977 1462.32 257.279 1371.13 257.279C1279.93 257.279 1188.74 178.976 1097.54 173.383C1006.35 167.79 913.552 234.907 822.357 251.686C731.162 268.465 639.966 234.907 548.771 212.535C457.576 190.162 366.381 178.976 273.586 190.162C182.39 201.348 91.1951 234.907 46.3975 251.686L0 268.465L2.34699e-05 -0.000198361L46.3975 -0.000194304C91.1951 -0.000190388 182.39 -0.000182415 273.586 -0.000174443C366.381 -0.00016633 457.576 -0.000158358 548.771 -0.000150385C639.966 -0.000142413 731.162 -0.00013444 822.357 -0.000126468C913.552 -0.000118495 1006.35 -0.000110383 1097.54 -0.00010241C1188.74 -9.44378e-05 1279.93 -8.64652e-05 1371.13 -7.84927e-05C1462.32 -7.05201e-05 1553.52 -6.25476e-05 1646.31 -5.44352e-05C1737.51 -4.64627e-05 1828.7 -3.84901e-05 1873.5 -3.45738e-05L1919.9 -3.05176e-05L1919.9 201.349Z" fill="#F3FFE7"/>
</svg>
